<?xml version="1.0" encoding="UTF-8"?>
<svg id="Layer_1" xmlns="http://www.w3.org/2000/svg" version="1.1" viewBox="0 0 192 192">
  <!-- Generator: Adobe Illustrator 30.2.1, SVG Export Plug-In . SVG Version: 2.1.1 Build 1)  -->
  <defs>
    <style>
      .st0 {
        fill: #fff;
      }

      .st1 {
        fill: red;
      }
    </style>
  </defs>
  <rect class="st0" width="192" height="192"/>
  <path class="st1" d="M112.9,70.2c-9.1-6.6-22.4-9-31.5-2.2-4.7,3.5-10,5.3-16,4-3.1,1.3-5.6,3.3-8.3,5.3l-11.8,8.6c2.3,4.4,4.4,8.6,5.2,13.5,1,5.7,1.5,11.3,2,17.1.4,4,.8,7.8,2.2,11.5.9,2.6,3.2,7.3,1,9.4-.6.6-2.2,1.3-3.3,1.3h-12c0,0,.6,4.1.6,4.1.3,2-1.4,4-3.5,4.1l-8.4.6c-5.3.4-10.5.3-15.7-.1-1.4-.1-2.6-1.3-2.7-2.5-.1-1.4.9-2.8,2.4-3.2,5.8-1.5,11.1-3.2,16.5-6.3l-4.3-20c-1.9-9-3.8-17.8-5.2-26.9-.7-4.8.4-8.8,3.9-12.3,11.3-11.5,24.4-21.4,39.1-28.2,4.2-1.9,8.4-2.9,12.7-4.4,15.7-5.4,31.8-4.6,46.6,2.8,9.8,4.9,17.1,13,20.6,23.3,3.2,9.2-.9,9.4,3.9,13.7,8.8-4.6,19.3-.7,22.6,8.5,3.2,8.7-1.4,17.8-10.4,20.3,4.4,7.8,5.5,14.4,7.6,22.8,3.7-.3,6.8.2,10.1,1.3,2.6.8,7.1,1.9,6.7,4.6-.1.7-1.3,2-2.1,2l-6.1.3c1.6.7,4.8,2.2,3.7,4.5-.3.6-1.5,1.3-2.5,1.3h-18.9c-2.8,0-3.5-.9-4.3-3.3l-9.3-28.6c-3.4-10.6-9.2-20.2-15-29.7-2-3.2-5-5.6-7.2-8.6-2.5-3.4-5.7-6.1-9.1-8.6h0ZM176.9,146.9c-1.6-1.8-3.4-1.7-5.2-2.4-9.4-3.7-12.4.1-13.1-3-1.7-7.9-2.8-15.7-5.8-23.3l-13-32.8c-1.3-3.2-2.7-6.7-4.1-9.8-.2-.4.5-1.3.8-1.2.3,0,1,.5,1.2.8l3.2,7.1c3.6-5.8-1.3-16.2-5.1-21.5-4.6-6.4-10.8-11-18.2-13.9-13.1-5.2-25.3-6-38.9-1.8l-6.8,2.1c1.9.8,3.6,1.3,5.2,2.1,5.3,3,7,9.4,5.3,15.4,17.9-8.4,35.1,2.8,45,17.5l.7-1.2c0-.2.7.6.8.8l5.4,9.9c4.3,8,9,15.6,11.9,24.3l9.3,28.6c.5,1.5.7,2.5,2.6,2.5h18.8s0,0,0,0ZM37.2,133.5c-.6-7.3-.7-14.3-.7-21.7,0-7.9-1-15.3-4.1-22.6-.6-1.4,0-2.5,1.2-3.1l9-4.5c6.7-3.3,13-6.7,19.4-10.7,1.6-1,3.1-1.2,5-1,4.2.4,8.9-.2,11.8-3.4,4.3-4.8,2.5-12.1-2.5-15.8-3.4-2.5-8-3-12-1-14.8,7.2-28.1,16.8-39.3,28.8-2.3,2.5-3.3,5.3-2.8,8.6,1.2,7.6,2.5,14.9,4.2,22.4l4.9,22.2c.4,1.9.8,4.6-1.1,5.8-4.9,3-10.5,4.5-16,6-.3,0-1,.7-1.3.9-1.7,1.9,22.2.5,23.6.4,4.4-.3,1-6.4.6-11.3h0ZM52.6,136.6c.5,0,1.7-.8,1.8-1.3s0-1.6-.2-2.1c-1.8-4.6-3-9-3.5-13.9l-2-16.9c-.7-5.8-2.7-11-5.7-15.9-.4-.6,0-1.7.6-2,1.2-.8,2.1-1.4,2.9-2.3l-12.2,6.2c1.3,3.3,2,6.4,3,9.6l9,27.1c.4,1.2.8,3.5,0,4.4-2,2-4.4,2.5-7.1,3.6l.6,3.6h12.6c0,0,0,0,0,0ZM144.9,84.6l-1.5-2.1c-1,.9-2,2.5-.7,3.9l2.2-1.9ZM152,110.3c4.6.8,8.7-.3,12.1-3.3,2.6-2.4,4.4-6.2,4.2-10.3-.3-5.1-3.1-9.4-7.4-11.5-4.5-2.2-9.6-1.9-13.9.8-1.3.8-2.9,2.1-3.2,3.7l8.2,20.6h0ZM45.1,127.9l-4.3-13.8-2.1-6.3.5,22.7c2.3-.6,4-1.3,6-2.7ZM176,138.5c-7.8-2.5-11-.4-11.5-2.8-1.9-8.6-3.3-15.4-7.5-22.9h-3.9c1.5,3.6,2.7,7.2,3.8,11,1.1,4.2,4,13,6.3,16.4l7,.7c3.6.4,7.2,0,11.2-.2-1.4-1.5-3.3-1.6-5.4-2.2h0Z"/>
  <path class="st0" d="M176.9,146.9h-18.8c-1.9,0-2.1-1-2.6-2.5l-9.3-28.6c-2.8-8.7-7.5-16.3-11.9-24.3l-5.4-9.9c-.1-.2-.7-1-.8-.8l-.7,1.2c-9.9-14.7-27.1-25.9-45-17.5,1.8-6,0-12.4-5.3-15.4-1.5-.9-3.3-1.4-5.2-2.1l6.8-2.1c13.6-4.2,25.7-3.4,38.9,1.8,7.4,2.9,13.5,7.5,18.2,13.9,3.8,5.3,8.7,15.7,5.1,21.5l-3.2-7.1c-.1-.3-.9-.7-1.2-.8-.3-.1-1,.9-.8,1.2,1.4,3.1,2.8,6.6,4.1,9.8l13,32.8c3,7.6,4.1,15.4,5.8,23.3.7,3.1,3.7-.6,13.1,3,1.7.7,3.5.6,5.2,2.4h0Z"/>
  <path class="st0" d="M37.2,133.5c.4,4.9,3.8,11-.6,11.3-1.5,0-25.4,1.6-23.6-.4.2-.2,1-.8,1.3-.9,5.5-1.4,11.1-2.9,16-6,1.9-1.2,1.5-3.9,1.1-5.8l-4.9-22.2c-1.7-7.5-3-14.8-4.2-22.4-.5-3.3.4-6.1,2.8-8.6,11.2-12,24.6-21.6,39.3-28.8,4-1.9,8.7-1.4,12,1,5,3.6,6.8,10.9,2.5,15.8-2.9,3.2-7.7,3.9-11.8,3.4-1.9-.2-3.4,0-5,1-6.3,3.9-12.7,7.3-19.4,10.7l-9,4.5c-1.2.6-1.8,1.7-1.2,3.1,3,7.3,4,14.7,4.1,22.6,0,7.4.1,14.4.7,21.7h0Z"/>
  <path class="st0" d="M152,110.3l-8.2-20.6c.2-1.6,1.8-2.9,3.2-3.7,4.3-2.7,9.4-3.1,13.9-.8,4.2,2.1,7.1,6.4,7.4,11.5.3,4.1-1.5,7.9-4.2,10.3-3.3,3-7.5,4.2-12.1,3.3Z"/>
  <path class="st0" d="M52.6,136.6h-12.6c0,0-.6-3.7-.6-3.7,2.7-1.1,5.1-1.5,7.1-3.6.8-.9.4-3.1,0-4.4l-9-27.1c-1.1-3.2-1.7-6.3-3-9.6l12.2-6.2c-.9,1-1.8,1.5-2.9,2.3-.5.3-1,1.4-.6,2,3,4.9,5,10.1,5.7,15.9l2,16.9c.6,4.9,1.8,9.3,3.5,13.9.2.5.3,1.6.2,2.1s-1.3,1.3-1.8,1.3h0Z"/>
  <path class="st0" d="M176,138.5c2,.6,4,.7,5.4,2.2-4,.2-7.6.6-11.2.2l-7-.7c-2.2-3.4-5.1-12.3-6.3-16.4-1-3.8-2.3-7.5-3.8-11h3.9c4.2,7.5,5.6,14.3,7.5,22.9.5,2.5,3.6.3,11.5,2.8h0Z"/>
  <path class="st0" d="M45.1,127.9c-1.9,1.4-3.6,2.1-6,2.7l-.5-22.7,2.1,6.3,4.3,13.8h0Z"/>
  <path class="st0" d="M144.9,84.6l-2.2,1.9c-1.3-1.4-.3-3,.7-3.9l1.5,2.1Z"/>
</svg>