<?xml version="1.0" encoding="UTF-8"?>
<svg id="Layer_1" data-name="Layer 1" xmlns="http://www.w3.org/2000/svg" viewBox="0 0 185.72 323.77">
  <defs>
    <style>
      .cls-1 {
        fill: #fff;
      }
    </style>
  </defs>
  <path fill="currentColor" d="M56.99,165.28c2.83,9,4.25,18.65,8.24,26.9,3.78,7.82,8.17,14.73,10.97,22.92l6.23,18.23c6.4,2.08,12.13,8.53,11.01,15.48-.3,1.86-1.58,3.37-.72,5.65.6,1.62.38,4.73-.55,5.79s-4.02,2.09-5.62,1.72c-4.05-.92-7.72-4.09-9.27-7.85l-5.94-14.42c-2.07-5.02-5.86-10.02-8.84-14.64-10.9-.77-9.17-14.56-10.1-16.94l-20.13-51.94c-4.3-11.09-.07-21.41,4.4-31.61,1.96-4.48-5.46-6.78-8.51-6.22C12.44,121.23-.06,109.38,0,94.14c.04-11.43,6.52-20.32,17.28-23.48,9.84-2.89,20.67-.9,27.34,7.12,7.11,8.55,4.68,17.74,4.48,29.37,4.03-9.6,6.8-16.51,14.22-22.31,8.63-6.76,16.6-13.86,24.18-21.85,11.35-11.95,22.66-23.95,32.79-36.89-2.51-6.27-2.16-11.44.82-17.3,2.59-5.09,7.58-10.81,13.81-8.13,5.42,2.33,4.42,9.72,6.51,13.84,1.62,3.19,4,5.35,4.07,9.56.13,8.1-.04,17.36,4.65,24.26,9.63,14.18,22.25,23.41,32.71,40.01,5.1,8.1,3,16.48-3.1,23.16-14.27,15.62-27.59,31.08-42.9,46.03l-4.39,25.69c-2.22,13.02-8.2,25.74-6.97,38.86l2.15,22.97c1.62,17.31-11.21,41.12-5.98,67.04.35,1.71-.5,5.73-1.38,7.1s-3.88,2.68-5.86,2.63c-8.72-.24-16.41.03-25.12,1.34-4.7.71-10.38,1.24-14.51-1.34-.82-.51-1.72-3.18-1.28-4.03,2.54-4.95,13.16-3.03,26.4-14.38,1.67-1.43,3.98-5.59,3.97-8.12-.06-19.2.76-37.99-1.95-56.94l-2.77-19.38c-2.41-16.9-2.72-33.59-2.51-50.59-13.65.6-26.27.44-39.67-3.12ZM61.51,192.57c-4.16-9.38-4.16-20.18-9.21-28.32-3.56-5.74-11.7-8.01-13.89-15.47.19-.32,3.08-.02,3.79.65l8.73,8.13c3.67,3.42,8.2,4.29,13.03,5.23,2.79.54,6.55,2.09,9.42,2.12l29,.31c5.47.06,8.99-2.17,11.24-7.23,4.92-11.03,4.25-23.54-.28-34.89-10.28-.62-20.66,2.05-29.97-5.96-5.33-4.59-5.45-12.92-2.03-19.14,20.57-37.45,26.59-30.71,47.86-63.03l-.48-14.04c-.05-1.43.83-4.72,2.19-5.06l6.26-1.56c1.09-3.01-.88-9.49-4.99-10.65-5.73,2.32-10.15,10.01-9.61,16.23.45,5.26.07,9.03-3.39,13.07-11.11,12.96-21.79,25.84-34.49,37.4l-23.5,21.39c-4.81,4.38-6.21,10.03-7.11,15.85-.68,4.34-6.76.75-8.55,2.03l-9.23,6.62,7.03,9.46c-23.51,10.88,9.64,75.71,12.25,79.31l4.6,6.34,14.65,27.23c3.29,6.12,3.96,14.84,10.01,18.81,1.05.69,4.15,1.19,4.33.17.73-4.12-4.14-6.2-4.19-13.44,1.63-.32,2.55-.48,2.82.13l1.3,2.92c2.11-6.47-6.86-7.71-8.6-11.99l-12.2-30.13c-1.74-4.29-4.71-7.85-6.77-12.51ZM76.33,319.09c9.55,3.41,18.18-.26,27.33-.45,4.83-.1,10.54,1.75,13.7-1.22,4.41-4.15-3.41-12.75,1.23-33.1,3.06-13.4,5.42-26.43,6.08-40.26.34-7.23-3.34-14.89-2.65-21.82l11.01-61.96c-4.42.03-7.49,2.95-10.7-.17,6.08-2.12,11.04-3.12,14.93-7.12,14.48-14.89,27.94-29.85,41.37-45.58,4.51-5.28,5.39-11.96,1.1-17.79-6.34-8.62-13.25-16.41-20.51-24.42-19.13-21.13-14.93-20.49-17.6-43.8-.36-3.1-8.52-4.85-9.26-1.5-1.77,8.1,1.82,15.63-1.42,35.07-.28,1.67.48,4.78,1.64,5.73,3.52,2.87,11.33-1.93,14.59,5.66,6.28,14.63,3.36,22,16.61,28.97-8.97,5.22-15.08,10.94-21.41,17.77-4.33,4.67-9.33,9.49-16.1,9.52l-9.09.04c2.83,14.33,5.35,32.39-5.37,43.03-2.55,2.53-7.27,2.66-10.89,2.87-1.96,16.66-.78,32.89,1.37,49.46l2.28,17.67c2.54,19.61,2.6,39.17,2.43,58.94-.12,14.62-19.15,19.42-30.68,24.44ZM137.22,113.38c6.46-6.79,12.95-12.58,19.86-17.94-10.45-8.48-6.63-17.24-14.5-29.54-1.74-2.72-9.84.74-13.66-2.95-1.01-.97-1.71-4.25-1.56-5.7l1.6-15.59-15.84,19.24c-5.89,7.15-46.44,46.6-23.71,56.37,6.47,2.78,13.33,3,20.39,2.31,14.26-1.39,18.07,3.63,27.44-6.21ZM36.13,112.4c9.82-5.68,13-17.79,8.63-27.27s-14.8-14.24-25.25-11.76c-8.9,2.12-14.94,8.63-16.08,17.83-1.03,8.28,2.64,16.53,9.32,20.92s15.48,4.85,23.38.28Z"/>
  <path class="cls-1" d="M61.51,192.57c2.07,4.66,5.03,8.22,6.77,12.51l12.2,30.13c1.73,4.28,10.71,5.52,8.6,11.99l-1.3-2.92c-.27-.6-1.2-.45-2.82-.13.05,7.24,4.92,9.32,4.19,13.44-.18,1.01-3.29.51-4.33-.17-6.05-3.97-6.71-12.7-10.01-18.81l-14.65-27.23-4.6-6.34c-2.61-3.6-35.76-68.43-12.25-79.31l-7.03-9.46,9.23-6.62c1.79-1.28,7.87,2.31,8.55-2.03.91-5.82,2.3-11.48,7.11-15.85l23.5-21.39c12.7-11.56,23.39-24.44,34.49-37.4,3.46-4.04,3.84-7.81,3.39-13.07-.54-6.22,3.88-13.91,9.61-16.23,4.11,1.16,6.08,7.64,4.99,10.65l-6.26,1.56c-1.37.34-2.24,3.63-2.19,5.06l.48,14.04c-21.27,32.32-27.29,25.58-47.86,63.03-3.42,6.22-3.3,14.55,2.03,19.14,9.31,8.01,19.69,5.34,29.97,5.96,4.53,11.35,5.2,23.86.28,34.89-2.26,5.06-5.77,7.29-11.24,7.23l-29-.31c-2.87-.03-6.63-1.58-9.42-2.12-4.83-.94-9.36-1.81-13.03-5.23l-8.73-8.13c-.72-.67-3.6-.98-3.79-.65,2.19,7.45,10.33,9.73,13.89,15.47,5.05,8.14,5.05,18.94,9.21,28.32Z"/>
  <path class="cls-1" d="M76.33,319.09c11.53-5.02,30.56-9.82,30.68-24.44.17-19.77.11-39.32-2.43-58.94l-2.28-17.67c-2.14-16.57-3.32-32.81-1.37-49.46,3.61-.21,8.33-.33,10.89-2.87,10.72-10.63,8.2-28.7,5.37-43.03l9.09-.04c6.77-.03,11.77-4.85,16.1-9.52,6.34-6.83,12.44-12.55,21.41-17.77-13.25-6.97-10.33-14.34-16.61-28.97-3.26-7.6-11.06-2.8-14.59-5.66-1.17-.95-1.92-4.06-1.64-5.73,3.24-19.45-.35-26.98,1.42-35.07.73-3.35,8.9-1.61,9.26,1.5,2.67,23.31-1.52,22.67,17.6,43.8,7.25,8.01,14.17,15.81,20.51,24.42,4.29,5.83,3.4,12.51-1.1,17.79-13.43,15.73-26.89,30.69-41.37,45.58-3.89,4-8.85,5-14.93,7.12,3.2,3.12,6.28.2,10.7.17l-11.01,61.96c-.68,6.92,3,14.59,2.65,21.82-.66,13.83-3.02,26.86-6.08,40.26-4.64,20.35,3.17,28.94-1.23,33.1-3.16,2.97-8.87,1.13-13.7,1.22-9.15.18-17.78,3.86-27.33.45Z"/>
  <path class="cls-1" d="M36.13,112.4c-7.89,4.56-16.57,4.19-23.38-.28s-10.35-12.63-9.32-20.92c1.15-9.2,7.19-15.71,16.08-17.83,10.44-2.48,20.92,2.36,25.25,11.76s1.18,21.59-8.63,27.27Z"/>
</svg>