<?xml version="1.0" encoding="UTF-8"?>
<svg id="Layer_1" data-name="Layer 1" xmlns="http://www.w3.org/2000/svg" viewBox="0 0 324.07 110.45">
  <defs>
    <style>
      .cls-1 {
        fill: #fff;
      }
    </style>
  </defs>
  <path fill="currentColor" d="M18.54,95.55c2.35,4.51,7.16,2.87,8.86,7.68.43,1.21-.85,4.59-2.23,4.85-4.11.8-9.27.95-13.36.23-4.75-.83-7.59-5.38-8.01-9.86-.73-7.79-1.88-14.47-3.68-22.2-.39-1.69.27-5.15,1.24-6.42,3.53-4.61,15.05-1.72,19.65-2.76,10.57-2.4,20.63-5.18,30.77-8.42,11.75-3.76,22.7-3.29,34.65-4.04,13.31-.83,26-5.94,39.38-7.84,7.08-1,15.4-1.74,21.83-4.22,19.38-15.67,31.76-6.71,42.44-6.58,30.14.38,49.46-17.78,80.03-5.69-1.77-15.77,8.47-28.28,23.19-30.07,10.96-1.33,21.14,3.75,26.49,12.24,5.96,9.46,5.75,21.36-.94,30.2-9.4,12.43-26.59,14.57-39.3,5.76l-19.2,14.89c-6.22,4.82-10.46,11.58-19.98,11.48l1.26,20.82c6.25-.77,31.11,4.26,27.08,12.15-.64,1.25-3.24,2.71-4.9,2.7l-29.98-.15c-4.22-.02-6.69-3.53-8.08-6.96-4.18-10.37-7.75-19.85-11.32-30.81l-32.73.03c-7.54,0-15,1.37-22.38,2.57-16.98,2.77-33.41,3.06-50.6,2.48l-23.1-.79c-7.24-.25-14.78,1.73-21.96,2.47-13.28,1.35-25.52,3.01-38.85,5.18-2.32,3.24-4.55,7.26-6.24,11.07ZM309.39,45.61c6.99-4.33,10.56-12.48,10.08-20.37-.45-7.27-4.71-14.17-11.54-17.91-9.48-5.2-20.94-3.44-27.95,4.12-7.24,7.8-7.41,19.32-1.52,28.67,6.44,10.24,20.09,12.2,30.93,5.48ZM231.82,106.01l32.39-.07c-13.26-7.36-19.41-4.19-29.7-7.2-3.24-11.7-4.86-22.78-5.94-35.03,5.15-3.55,30.24-15.12,33.15-14.51.73.15,1.48,2.13,1.01,2.71-.35.44-1.68,1.6-2.47,1.91-8.12,3.12-18.01,6.91-26.33,11.1-1.55.78-.79,5.27.67,5.6,8.68,1.96,15.8-2.55,21.08-8.84,4.25-5.06,10.65-8.13,15.67-12.33l5.09-4.26-4.39-7.4c-.3,2.3-.68,5.59-.97,7.23-.1.59-2.84.33-2.85-.31l-.05-2.32c-.05-2.31-.04-6.55-1.52-7.98-5.33-5.15-27.67-4.14-37.43-1.11-13.01,4.03-26.17,6.14-39.38,7.79l.23,3.72c.03.51-1.35,1-1.86.94-3.62-.39,1.14-4.4-7.09-6.61-11.2-3.01-22.66-1-30.63,7.54l-14.68,2.92c-.64,8.69,1.11,16.05,6.03,23.12,12.99-1.38,25.26-2.9,38.03-4.94,3.45-.55,26.79.99,33.55.18-2-5.94-1.16-11.27,4.29-14.65l31.45-19.45c.88-.54,3.91.47,3.46,1.05-.34.44-1.21,2-2.13,2.59l-29.21,18.64c-3.97,2.53-5.64,5.65-4.29,10.28,3.94,13.49,8.87,26.24,14.8,39.67ZM22.31,103.99c-2.99-1.82-5.77-3.1-6.91-4.89-2.99-4.73,3.52-16.47,6.81-17.69,6.67-2.47,13.43-3.12,20.41-3.98l41.22-5.08c7.83-.96,42.75,2.12,54.23.7-4.55-8.04-6.42-14.26-5.91-23.08l-23.45,4.72c-7.98,1.61-15.89,4.11-24,4.62-9.2.58-18.19-.05-27.03,2.33-12.9,3.47-24.98,7.15-38.13,9.94-2.64.56-12.47-1.53-14.57.94-.57.68-.77,3.06-.53,4.05,1.74,7.24,3.06,14.24,3.71,21.73.62,7.07,9.2,6.49,14.13,5.7ZM237.27,92.29l-1.11-16.31c-.04-.55-.75-1.63-.97-1.95-3.04-4.42,1.71,20.28,2.08,18.26Z"/>
  <path class="cls-1" d="M231.82,106.01c-5.93-13.42-10.86-26.18-14.8-39.67-1.35-4.64.32-7.75,4.29-10.28l29.21-18.64c.92-.59,1.79-2.14,2.13-2.59.45-.58-2.58-1.6-3.46-1.05l-31.45,19.45c-5.46,3.37-6.29,8.7-4.29,14.65-6.76.81-30.1-.73-33.55-.18-12.77,2.05-25.04,3.56-38.03,4.94-4.91-7.07-6.67-14.43-6.03-23.12l14.68-2.92c7.97-8.55,19.44-10.55,30.63-7.54,8.23,2.21,3.48,6.22,7.09,6.61.51.05,1.89-.43,1.86-.94l-.23-3.72c13.21-1.64,26.37-3.76,39.38-7.79,9.76-3.02,32.1-4.03,37.43,1.11,1.48,1.43,1.47,5.68,1.52,7.98l.05,2.32c.01.64,2.75.91,2.85.31.29-1.64.66-4.94.97-7.23l4.39,7.4-5.09,4.26c-5.02,4.2-11.42,7.27-15.67,12.33-5.28,6.28-12.4,10.79-21.08,8.84-1.46-.33-2.22-4.82-.67-5.6,8.32-4.19,18.21-7.98,26.33-11.1.79-.31,2.12-1.47,2.47-1.91.47-.59-.28-2.56-1.01-2.71-2.91-.61-28,10.96-33.15,14.51,1.08,12.24,2.7,23.33,5.94,35.03,10.29,3.01,16.44-.15,29.7,7.2l-32.39.07Z"/>
  <path class="cls-1" d="M22.31,103.99c-4.93.78-13.51,1.37-14.13-5.7-.66-7.49-1.98-14.48-3.71-21.73-.24-.99-.04-3.37.53-4.05,2.09-2.47,11.93-.38,14.57-.94,13.15-2.79,25.24-6.47,38.13-9.94,8.84-2.38,17.82-1.75,27.03-2.33,8.11-.51,16.02-3.01,24-4.62l23.45-4.72c-.52,8.82,1.36,15.04,5.91,23.08-11.47,1.43-46.4-1.66-54.23-.7l-41.22,5.08c-6.98.86-13.74,1.52-20.41,3.98-3.3,1.22-9.8,12.96-6.81,17.69,1.13,1.8,3.91,3.08,6.91,4.89Z"/>
  <path class="cls-1" d="M309.39,45.61c-10.84,6.72-24.49,4.76-30.93-5.48-5.89-9.36-5.72-20.87,1.52-28.67,7.01-7.56,18.47-9.32,27.95-4.12,6.82,3.74,11.09,10.64,11.54,17.91.49,7.89-3.09,16.03-10.08,20.37Z"/>
  <path class="cls-1" d="M237.27,92.29c-.37,2.02-5.12-22.68-2.08-18.26.22.32.94,1.4.97,1.95l1.11,16.31Z"/>
</svg>