<?xml version="1.0" encoding="UTF-8"?>
<svg id="Layer_1" data-name="Layer 1" xmlns="http://www.w3.org/2000/svg" viewBox="0 0 353.07 328.56">
  <defs>
    <style>
      .cls-1 {
        fill: #fff;
      }
    </style>
  </defs>
  <path fill="currentColor" d="M157.42,143.83c-17.45-8.08-19.06-22.72-33.38-25.1-12.82-2.13-25.3-4.26-38.36-5.62s-25.92-2.31-39-5.13c-17.65-3.82-24.76,3.61-32.28-3.41-1.01-.94-1.39-4.17-1.43-5.32C9.61,98.06-.15,98.12,0,91.6c.03-1.44,2.54-3.87,4.02-3.99l15.75-1.25c6.28-.5,12.69,3.26,18.92,3.44l31.79.89c18.8.53,36.97,3.58,55.93-.63-4.87-1.64-9.74.96-14.35.69-10.4-.62-18.65-6.94-23.34-14.59-5.58-9.11-6.15-19.36-1.59-28.76s13.38-14.05,22.46-15.13c10.01-1.19,19.91,2.84,25.95,10.81,12.46,16.46-.96,30.97,10.14,31.59,8.44.47,9.07-8.81,27.44-11.05,11.79-1.44,34.88-9.54,45.75-14.38,8.24-3.67,15.99-7.22,24.42-10.51l24.39-9.52c5.55-15.23,11.57-11.65,9.89-20.27-.41-2.09.74-6.11,2.15-7.37,1.7-1.52,5.96-2.04,8.24-1.11,7.98,3.24,11.72,9.84,15.96,16.4,4.12,6.38,7.27,12.57,10.47,19.52l15.56,33.73c7.62,16.52,15.93,32.2,22.1,49.19,3.23,8.89-1.46,18.1-10.18,21.36-24.94,9.33-50.79,14.15-77.41,17.06-2.77.3-4.17,2.07-4.49,4.57l-6.89,54c-.96,7.53-1.47,15.14-.49,22.77,4.7,36.63-5.94,42.05-2.54,78.06.24,2.57-.68,7.26-2.68,8.51-4.47,2.82-9.68,2.99-14.58,2.16-16.7-2.86-24.11,4-38.5-1.35-1.95-.73-3.85-4.12-3.59-5.78,1.09-7.02,15.99-2.65,32.88-15.82,7.02-5.47,2.54-54.08,1.43-64.39-.43-4.01-2.76-8.36-2.81-12.4-.19-15.17-1.6-29.72-3.27-44.94l-2.32-21.14-22.32-4.52c-12.78-2.58-24.73-8-36.88-13.63ZM275.15,122.98l-11.52-.65c-6.78-8.26-18.89-10.94-29.55-6.27,2.7,16.02-.79,31.25-12.03,42.65l42.45-4.8c25.8-2.92,50.66-8.05,75.05-16.92,3.62-1.32,7.26-4.16,8.31-6.8,1.18-2.95,1.32-7.97-.13-11.13l-28.18-61.62c-7.25-15.86-19.8-47.93-35.48-54.39-3.73,2.3-3.5,7.97-1.59,11.45l10.93,1.9c11.67,14.29-9.65,17.15-3.6,25.93,5.59,1.38,9.41,2.75,11.72,8.12,5.51,12.81,9.09,26.03,12.17,39.78,2.09,9.35,5.68,18.74,12.24,25.48l1.89,1.94c.42.43-1.01,1.94-1.55,1.7-.36-.16-1.78-.67-2.21-.93l-18.28,1.74-30.63,2.83ZM27.19,100.33l-10.6,1.46c6.81,5.11,14.07-.37,20.96.76l30.89,5.08,14.32.88,46.59,7.24-11.02-6.01c14.95-.51,23.3,18.16,32.3,24.44,16.9,11.78,36.87,18.19,57.01,21.83l9.99,1.8c11.04-10.82,15.7-26.07,12.69-41.75-19.55.13-36.11-10.5-45.2-27.47l-10.79,5.39c1.68-6.32,7.19-6.65,11.57-8.74l41.22-19.65c5.58-2.66,11.33-4.78,16.96-7.91l30.33-16.89c2.72-1.51,24.62-10.54,17.19-20.54-2.45-3.3-6.28,2.81-12.31-2.09-6.71,2.85-5.03,12.13-11.44,14.9-7.12,3.08-13.6,5.68-20.79,8.36-9.37,3.5-17.98,7.55-27.02,11.74-5.1,2.36-10.83,3.91-16.2,6-10.59,4.13-21.15,7.04-32.4,8.64-16.21,2.31-17.95,17.87-33.16,7.23-2.94,4.74-6.31,8.47-9.99,11.26,5.55,5.33,6.81,14.45,12.77,10.26s4.91-9.82,6.08-17.17c4.96,5.15,2.19,13.77-2.43,18.61-2.62,2.74-8.85,4.44-11.18,1.37-2.57-3.38-4.15-5.5-8.8-4.88-9.58,1.27-19.26,2.13-29.05,1.95-8.07-.15-15.46-1.29-23.42-1.65l-35.15-1.59c-11.1-.5-21.37-5.57-32.9-.62,6.78,4.09,17.86,1.05,22.99,7.73ZM134.27,74.09c6.29-12.1,2.99-26.18-7.65-33.46-10.5-7.18-25.14-5.6-33.32,4.99-7,9.07-6.05,21.35.44,30.48,5.12,7.19,12.82,10.96,21.41,10.4,7.69-.5,15.03-4.54,19.12-12.41ZM276.72,119.03l42.89-4.21c-4.54-7.24-7.81-14.72-9.68-22.91-3.05-13.43-6.74-26.31-11.85-38.93-3.39-8.37-7.44-3.35-19.38-10.08l-23.34,13.15c-9.25,5.21-18.32,9.65-27.84,14.19l-37.83,18.01c8.57,14.56,27.15,26.36,43.69,23.23,30.63-5.8,26.2,9.23,43.34,7.55ZM236.69,324.13c3.43.56,9.41-1.06,9.15-4.99l-.99-14.97c-.99-14.93,7.9-36.95,4-63.1-1.1-7.37-.84-14.53-.03-22.07l7.37-60.17-35.12,3.29c-.17,13.3,4.89,43.03,4.65,54.86-.17,8.59,1.65,15.34,3.34,23.43,1.89,9.04,1.22,18.93,2.04,28.3.89,10.09.6,20.3-.39,30.22-.69,6.88-4.82,10.96-10.58,13.55-8.17,3.67-16.19,6.39-25.3,8.95,14.56,7.4,17.02-1.34,41.86,2.71Z"/>
  <path class="cls-1" d="M27.19,100.33c-5.13-6.69-16.21-3.64-22.99-7.73,11.53-4.95,21.8.12,32.9.62l35.15,1.59c7.97.36,15.35,1.49,23.42,1.65,9.78.19,19.46-.67,29.05-1.95,4.65-.62,6.24,1.51,8.8,4.88,2.33,3.07,8.56,1.37,11.18-1.37,4.62-4.84,7.39-13.46,2.43-18.61-1.17,7.35-.31,13.11-6.08,17.17s-7.23-4.93-12.77-10.26c3.68-2.78,7.05-6.52,9.99-11.26,15.21,10.64,16.95-4.92,33.16-7.23,11.26-1.61,21.81-4.51,32.4-8.64,5.37-2.1,11.1-3.64,16.2-6,9.05-4.19,17.65-8.24,27.02-11.74,7.19-2.68,13.67-5.29,20.79-8.36,6.4-2.77,4.73-12.05,11.44-14.9,6.03,4.9,9.86-1.21,12.31,2.09,7.43,10-14.47,19.03-17.19,20.54l-30.33,16.89c-5.63,3.13-11.38,5.25-16.96,7.91l-41.22,19.65c-4.37,2.09-9.88,2.41-11.57,8.74l10.79-5.39c9.09,16.97,25.64,27.6,45.2,27.47,3.01,15.68-1.65,30.93-12.69,41.75l-9.99-1.8c-20.14-3.63-40.1-10.04-57.01-21.83-9.01-6.28-17.35-24.95-32.3-24.44l11.02,6.01-46.59-7.24-14.32-.88-30.89-5.08c-6.88-1.13-14.14,4.34-20.96-.76l10.6-1.46Z"/>
  <path class="cls-1" d="M276.72,119.03c-17.13,1.68-12.7-13.35-43.34-7.55-16.54,3.13-35.12-8.67-43.69-23.23l37.83-18.01c9.52-4.53,18.59-8.98,27.84-14.19l23.34-13.15c11.94,6.72,15.99,1.71,19.38,10.08,5.11,12.63,8.8,25.51,11.85,38.93,1.86,8.19,5.13,15.67,9.68,22.91l-42.89,4.21Z"/>
  <path class="cls-1" d="M275.15,122.98l30.63-2.83,18.28-1.74c.43.26,1.84.78,2.21.93.55.23,1.97-1.28,1.55-1.7l-1.89-1.94c-6.56-6.74-10.15-16.13-12.24-25.48-3.08-13.75-6.66-26.97-12.17-39.78-2.31-5.37-6.13-6.73-11.72-8.12-6.04-8.78,15.27-11.64,3.6-25.93l-10.93-1.9c-1.91-3.48-2.14-9.14,1.59-11.45,15.67,6.46,28.22,38.53,35.48,54.39l28.18,61.62c1.45,3.16,1.31,8.18.13,11.13-1.06,2.64-4.69,5.48-8.31,6.8-24.39,8.86-49.25,14-75.05,16.92l-42.45,4.8c11.24-11.4,14.74-26.63,12.03-42.65,10.66-4.67,22.77-1.99,29.55,6.27l11.52.65Z"/>
  <path class="cls-1" d="M236.69,324.13c-24.84-4.05-27.3,4.69-41.86-2.71,9.11-2.56,17.13-5.28,25.3-8.95,5.75-2.58,9.89-6.67,10.58-13.55.99-9.92,1.27-20.13.39-30.22-.82-9.36-.15-19.25-2.04-28.3-1.69-8.09-3.51-14.83-3.34-23.43.24-11.84-4.82-41.57-4.65-54.86l35.12-3.29-7.37,60.17c-.8,7.54-1.07,14.7.03,22.07,3.91,26.16-4.98,48.17-4,63.1l.99,14.97c.26,3.93-5.72,5.55-9.15,4.99Z"/>
  <path class="cls-1" d="M134.27,74.09c-4.09,7.87-11.43,11.9-19.12,12.41-8.59.56-16.3-3.21-21.41-10.4-6.49-9.13-7.44-21.41-.44-30.48,8.18-10.59,22.82-12.17,33.32-4.99,10.64,7.28,13.94,21.36,7.65,33.46Z"/>
</svg>