<?xml version="1.0" encoding="UTF-8"?>
<svg id="Layer_1" data-name="Layer 1" xmlns="http://www.w3.org/2000/svg" viewBox="0 0 301.39 201.12">
  <defs>
    <style>
      .cls-1 {
        fill: #fff;
      }
    </style>
  </defs>
  <path fill="currentColor" d="M95.91,150.39c-7.93,2.93-10.69,14.42-12.75,14.23l-5.11-.47c-4.1,3.28-10.92,18.01-17.78,14.59-6.22,4.73-13.36,10.54-18.5,16.6-3.39,4-6.12,5.88-11.61,5.78l-25.31-.45c-1.4-.03-4.24-1.98-4.67-3.28-2.67-8.08,25.25-11.51,30.55-11.14l16.08-21.58c3.01-4.04,6.28-7.52,9.86-11.52l-6.3-5.68c-1.53-1.38-2.36-5.28-1.55-7.12,3.2-7.27,10.8.77,21.43-18.23,1.38-2.47,6.16-3.78,8.29-5.75,3.16-2.93,8.34-5.86,10.66-9.1,5.47-7.67,9.69-15.13,15.98-22.11,23.68-26.29,26.72-46.11,45.76-72.29C156.21,5.6,163.82-.06,173.24,0c8.45.05,16.47,4.42,21.94,11.07,19.7,23.94,36.19,49.63,50.84,76.96,10.8,20.14,18.5,24.85,28.84,48.39,7.92,18.03,16.42,34.83,25.82,52.2.99,1.82.91,6.38-.01,8.14s-4.39,3.65-7.05,3.79c-13.29.72-26.03.72-39.28-.19-2.52-.17-5.05-3.88-4.85-5.85.3-2.96,3.5-3.67,6.71-4.29,7.41-1.44,13.88-4.84,20.9-8.76-5.34-10.63-10.82-20.05-17.67-29.64-8.47-11.86-15.23-25.12-25.21-35.71-5.26-5.58-8.76-11.13-13.44-16.8-11.42-13.84-25.56-24.94-36.29-39.5l-9.2-12.48c-5.72,11.1-10.63,20.96-17.42,30.46l-16.2,22.64c-3.4,4.75-7.85,8.27-13.28,11.15,7.44,5.72,10.24,14.93,8.31,24.17-1.79,8.51-8.04,14.66-14.48,17.45-9.12,3.95-18.17,2.68-26.31-2.83ZM165.62,56.87l5.77-11.71c-18.64-3.39-20.6-23.83-16.29-19.46-.32-.32,7.45,16.76,16.56,15.59l4.29-.55c7.88,12.64,18.09,24.16,28.32,35.19,6.77,7.29,15.16,13.31,20.45,21.47,3.95,6.11,7.9,10.27,12.58,15.64,11.27,12.95,19.61,28.27,29.56,42.37,5.27,7.47,9.37,14.63,13.55,22.82,5.1,9.99-19.12,13.92-25.74,17.68,13.07.86,25.29.39,38.62.14.98-.02,3.02-1.18,3.44-2.04s.38-3.56-.15-4.49c-8.97-15.89-17.28-32.24-24.55-49-4.7-10.83-9.72-20.27-16.72-29.61-6.04-8.07-10.77-16.47-15.67-25.44-13.68-25.08-28.94-48.6-46.99-70.68-5.4-6.61-12.77-10.99-21.39-10.13-7.48.74-15.7,7.39-18.41,13.28-.36.78-.27,2.83-.37,3.5-.08.54-2.61-.13-3.02.56-14.7,24.78-17.3,36.86-36.54,60.75-3.83,4.75-8.15,9.47-11.4,14.5l-10.72,16.59c-7.51,11.63-13.99,24.16-23.49,34.44-8.04,8.7-15.49,16.81-22.73,26.3l-12.21,16.02c-9.62.1-18.29,1.09-27.16,5.72l29.61.04,21.72-22.79c4.67-4.9,9.64-9.8,13.94-14.99l16.04-19.4,26.7-32.67c.6-.73,3.75-.52,3.57.23l-.6,2.46-3.41,3.63c16.33-1.59,24.66-13.54,32.64-25.56,6.74-10.15,14.56-18.91,20.2-30.37ZM117.72,150.08c8.01-2.43,13.25-8.49,14.72-15.48,1.64-7.81-.85-15.42-7.82-20.46l-15.57,3.79-16.34,20.46c3.39,10.32,14.46,14.91,25.02,11.7ZM58.09,151.49c9.06-6.33,18.02-23.12,23.81-30.82-17.72,3.96-.78,9.91-29.78,21.42l5.96,9.4ZM82.51,160.63c.76-7.13,4.94-9.28,9.21-12.21.75-1.56-.67-4.74-2.18-6.07l-14.68,17.48,7.65.79ZM62.28,174.02c5.92-2.81,9.22-7.44,11.81-12.75-4.33,4.2-8.09,8.22-11.81,12.75Z"/>
  <path class="cls-1" d="M165.62,56.87c-5.65,11.46-13.46,20.22-20.2,30.37-7.98,12.02-16.31,23.98-32.64,25.56l3.41-3.63.6-2.46c.18-.76-2.97-.97-3.57-.23l-26.7,32.67-16.04,19.4c-4.29,5.19-9.27,10.09-13.94,14.99l-21.72,22.79-29.61-.04c8.86-4.64,17.54-5.62,27.16-5.72l12.21-16.02c7.24-9.49,14.69-17.6,22.73-26.3,9.5-10.28,15.98-22.81,23.49-34.44l10.72-16.59c3.25-5.03,7.57-9.74,11.4-14.5,19.24-23.88,21.84-35.96,36.54-60.75.41-.69,2.94-.02,3.02-.56.1-.66.02-2.72.37-3.5,2.71-5.9,10.93-12.54,18.41-13.28,8.62-.86,15.99,3.52,21.39,10.13,18.05,22.08,33.31,45.6,46.99,70.68,4.89,8.97,9.63,17.38,15.67,25.44,7,9.34,12.03,18.78,16.72,29.61,7.27,16.77,15.57,33.12,24.55,49,.53.93.56,3.63.15,4.49s-2.45,2.02-3.44,2.04c-13.33.26-25.55.72-38.62-.14,6.62-3.76,30.84-7.69,25.74-17.68-4.18-8.19-8.27-15.35-13.55-22.82-9.95-14.09-18.29-29.41-29.56-42.37-4.68-5.37-8.62-9.53-12.58-15.64-5.29-8.16-13.68-14.18-20.45-21.47-10.24-11.03-20.45-22.55-28.32-35.19l-4.29.55c-9.11,1.16-16.88-15.91-16.56-15.59-4.31-4.37-2.35,16.07,16.29,19.46l-5.77,11.71Z"/>
  <path class="cls-1" d="M117.72,150.08c-10.56,3.21-21.63-1.37-25.02-11.7l16.34-20.46,15.57-3.79c6.97,5.04,9.46,12.65,7.82,20.46-1.47,6.99-6.71,13.05-14.72,15.48Z"/>
  <path class="cls-1" d="M58.09,151.49l-5.96-9.4c29-11.51,12.05-17.46,29.78-21.42-5.8,7.7-14.76,24.49-23.81,30.82Z"/>
  <path class="cls-1" d="M82.51,160.63l-7.65-.79,14.68-17.48c1.51,1.33,2.93,4.51,2.18,6.07-4.28,2.93-8.45,5.08-9.21,12.21Z"/>
  <path class="cls-1" d="M62.28,174.02c3.72-4.53,7.48-8.55,11.81-12.75-2.59,5.31-5.89,9.94-11.81,12.75Z"/>
</svg>