<?xml version="1.0" encoding="UTF-8"?>
<svg id="Layer_1" data-name="Layer 1" xmlns="http://www.w3.org/2000/svg" viewBox="0 0 167.73 177.23">
  <defs>
    <style>
      .cls-1 {
        fill: #fff;
      }
    </style>
  </defs>
  <path fill="currentColor" d="M44.75,166.86l4.56-9.42c8.95-18.48,7.13-43.08,22.21-59.83-10.66-1.31-20.66-.86-30.36-3.16l-24.22-5.74c-13.51-3.2-20.08-16.21-15.5-29.21,2.62-7.46,8.67-12.41,15.83-16.23,11.6-6.2,23.84-10.57,36.28-15.32,21.17-8.1,39.68-15.02,60.9-1.93,1.25-13.22,9.14-23.47,21.62-25.58,12.22-2.07,24.04,3.57,29.11,14.38,5.03,10.74,2.56,23.65-6.99,31.69-11.04,9.29-25.86,8.59-36.17-1.75-6.26,2.98-12.94,7.42-15.03,14.48-2.91,9.81-5.1,19.95-6.48,30.11l-1.82,13.45-4.94,45.51c-.71,6.54,9.39,18.87,5.01,24.61l-9.04,4.32-37.85-.26c-1.57-.01-4.72-1.88-5.86-2.93-1.28-1.19-2.21-5.19-1.24-7.18ZM158.39,40.11c6.8-8.69,6.42-20.34-.24-28.05-6.53-7.57-17.3-9.8-26.95-5.45-7.52,3.39-11.82,11.52-11.92,19.39s3.78,15.46,10.72,19.64c9.35,5.62,21.48,3.3,28.38-5.52ZM30.05,52.41c8.51,5.1,13.66,8.46,24.22,9.08,1.77.1,16.63-2.9,16.68-6,3.7,4.16,8.24,7.22,13.92,5.99l.72-14.07c.07-1.38,1.75-3.12,3.52-2.39.24,10.53-.94,21.6-2.08,32.13l-2.22,20.57-.54,49.69c-.06,5.15-5.97,11.72,11.42,22.21-.96-8.22-7.13-13.48-6.33-21.27l5.1-49.57c1.59-15.49,5.21-29.92,9.38-44.77,1.85-6.59,1.87-12.26,3.81-14.84.34-.46,2.25.8,2.24,1.35l-.15,6.71,9.31-5.98-4.04-10.88c-5.1-1.95-10.32-4.55-15.38-6.06-10-2.99-21.38-.7-30.45,2.96.09,2.22-.19,5.53-2.04,5.89-1.1.21-1.95-2.99-2.11-4.6l-17.48,6.38c-11.72,4.27-23.07,8.64-33.51,15.27-8.69,5.52-12.21,16.93-7.54,25.79,3.34,6.35,10.05,8.16,16.65,9.6l22.89,4.99,29.29,3.44c.72.09,2.6,1.37,2.62,2.07.06,3.5-10.54,7.87-15.61,32.37-1.57,7.6-3.57,14.76-5.79,22.19-2.9,9.71-8.87,16.27-7.65,19.66.38,1.04,3.01,2.38,4.19,2.38l37.77.11c-5.34-3.09-31.66-7.52-26.37-17.79l15.9-30.84v-19.69c.02-8.62.91-16.31,2.16-25.41-11.51-6.6-23.7-11.99-36.68-15.19l-14.87-3.67-.93-7.81ZM83.64,66.46l-11.09-3.55c-2.76-.88-7.55.35-10.79,1.5l20.81,9.63,1.08-7.59ZM82.77,165.89c-8.21-11.21-.23-16.39-2.53-32.23l-11.18,21.94c-.58,1.13.02,4.2,1.16,4.7l12.56,5.59Z"/>
  <path class="cls-1" d="M30.05,52.41l.93,7.81,14.87,3.67c12.97,3.2,25.17,8.59,36.68,15.19-1.24,9.1-2.14,16.8-2.14,25.41v19.69s-15.91,30.84-15.91,30.84c-5.29,10.27,21.03,14.7,26.37,17.79l-37.77-.11c-1.18,0-3.82-1.35-4.19-2.38-1.23-3.39,4.75-9.94,7.65-19.66,2.21-7.43,4.22-14.59,5.79-22.19,5.07-24.49,15.67-28.87,15.61-32.37-.01-.7-1.89-1.98-2.62-2.07l-29.29-3.44-22.89-4.99c-6.6-1.44-13.3-3.25-16.65-9.6-4.66-8.86-1.15-20.27,7.54-25.79,10.44-6.63,21.79-10.99,33.51-15.27l17.48-6.38c.16,1.61,1.01,4.81,2.11,4.6,1.85-.36,2.13-3.67,2.04-5.89,9.07-3.66,20.45-5.96,30.45-2.96,5.06,1.52,10.28,4.11,15.38,6.06l4.04,10.88-9.31,5.98.15-6.71c.01-.54-1.89-1.8-2.24-1.35-1.94,2.58-1.95,8.24-3.81,14.84-4.18,14.84-7.79,29.28-9.38,44.77l-5.1,49.57c-.8,7.79,5.37,13.05,6.33,21.27-17.4-10.49-11.48-17.06-11.42-22.21l.54-49.69,2.22-20.57c1.14-10.53,2.32-21.6,2.08-32.13-1.77-.74-3.45,1.01-3.52,2.39l-.72,14.07c-5.67,1.23-10.21-1.83-13.92-5.99-.05,3.1-14.9,6.1-16.68,6-10.56-.62-15.71-3.98-24.22-9.08Z"/>
  <path class="cls-1" d="M158.39,40.11c-6.9,8.82-19.03,11.14-28.38,5.52-6.94-4.17-10.82-11.93-10.72-19.64s4.4-15.99,11.92-19.39c9.65-4.35,20.42-2.11,26.95,5.45,6.65,7.71,7.03,19.36.24,28.05Z"/>
  <path class="cls-1" d="M82.77,165.89l-12.56-5.59c-1.14-.51-1.74-3.57-1.16-4.7l11.18-21.94c2.3,15.84-5.68,21.02,2.53,32.23Z"/>
  <path class="cls-1" d="M83.64,66.46l-1.08,7.59-20.81-9.63c3.24-1.15,8.04-2.38,10.79-1.5l11.09,3.55Z"/>
</svg>