<?xml version="1.0" encoding="UTF-8"?>
<svg id="Layer_1" data-name="Layer 1" xmlns="http://www.w3.org/2000/svg" viewBox="0 0 330.03 359.87">
  <defs>
    <style>
      .cls-1 {
        fill: #fff;
      }
    </style>
  </defs>
  <path fill="currentColor" d="M124.12,359.87c-1.64.1-12.82-1.35-11.43-8.08.36-1.72,2.84-3.35,5.07-3.78,10.28-1.95,19.29-6.11,27.98-12.09,4.39-10.3,2.37-33.24,1.91-45.62-.31-8.48-1.03-16.05-3.26-24.28-1.32-4.88-.54-10.63-1.06-15.78l-5.38-53.21c-15.39-4.47-32.81-.52-51.21-2.63-2.98,19.7-2.01,39.31-5.04,58.74l-6.41,41.12c.17-1.08,1.52,31.27-12.27,25.39-3.71,4.33-9.33,9.5-15.71,7.17-10.41-3.79,7.57-19.16,10.16-32.78,2.38-12.53,1.04-25.1,1.65-37.76l.82-17.01c.84-17.55-.99-34.54-2.8-51.92-.61-5.87.44-11.68-1.01-17.52-.91-3.65-7.27-6.24-10.81-6.1-12.86,7.69-28.42,5.71-38.01-5.33-9.28-10.68-10.16-26.95-.2-38.07,7.88-8.79,19.99-11.35,31.14-7.39,10.14,3.6,17.45,13.13,18.87,25.26,9.45-1.44,2.8-6.55,7.52-21.39,3.61-11.36,8.66-22.48,10.32-34.33,1.52-10.85,2.68-20.77,6.07-31.4,1.47-4.62,4.2-10.79,3.6-15.38-.75-5.72-5.74-22.36,3.98-22.23,2.6-6.46,5.91-15.33,14.63-13.15,13.02,3.25-.22,38.8-.03,37.31l-6.53,51.53-4.03,28.96c-.67,4.82.12,8.58,5.04,10.47l19.52,7.5c10.43,4.01,22.28,5.78,33.36,3.46,6.05-1.27,11.68-3.65,18.04-2.76,4.57.64,8.95-.05,13.29-1.81l40.61-16.42,14.82-5.95c15.28-6.13,30.04-12.06,45.63-17.29,4.54-1.52,8.3-4,11.85-6.99,5.37-4.52,13.07-3.69,16.97,2.17,2.53,3.8,6.04,5.63,10.25,7.85,8.02,4.23,10.71,19.76,4.8,22.71-8.2,4.1-21.35-16.18-34.2-9.07l-44.46,24.56-15.29,9.74-46.78,29.17-5.41,12.26c.29,22.02-9.29,62.27-7.53,81.5,3.93,43.11-6.57,47.42-2.42,79.92.77,6.02-4.04,10.81-9.74,10.45l-15.96-1.02-20.93,1.29ZM66.06,308.08c.91,3.15.23,5.2-.66,8.67,8.06-5.01,4.27-14.2,5.49-21.46l6.78-40.26c1.16-6.88.59-13.82,1.18-20.84l3.63-42.74-6.19-.4c1.46-4.91,3.8-2.11,6.1-1.76,23.18,3.54,33.76-.1,56.38,2.98,12.02-7.81,18.22-36.67,11.13-47.94-25.56,1.01-35.99-4.45-58.14-14.53-1.93.8-5.01,1.82-6.23.63-1.59-1.54-2.51-3.94-2.39-5.81l5.05,4c.2-6.74.99-12.73,1.83-19.36l3.28-25.86,5.74-46.71c.36-2.93,13.91-28.23.28-32.85-1.11,6.54-1.61,10.92-3.85,16.49-2.03-5.23,1.09-8.23.05-13.43-2.06,6.2-2.88,10.93-4.54,18.53l-4-7.91c-2.93,6.39,1.67,11.78,1.67,17.86,0,7.07-3.17,14.54-5.11,21.42-2.48,8.78-3.12,17.14-4.36,26.04-1.63,11.63-6.24,22.52-10.18,33.49-5.32,14.8.66,12.38-4.08,23.47,6.2,5.9,7.64,15.78,1.19,22.79-1.29,1.41-5.04,2.12-7.14,2.51,4.5,14.43.55,11.39,2.39,24.04,1.13,7.78,2.21,15.14,2.3,23.06.08,7.99,1.06,15.97.61,23.72l-1.22,21.33c-.69,12.03.63,23.95-1.21,35.86-2.19,14.18-16.54,26.72-12.61,30.54,9.21-.22,10.5-10.68,16.83-15.58ZM181.13,176.06l-3.54-2.22,7.85-3.37c16.13-6.94,29.7-17.8,44.4-27.23l17.15-11.01,30.75-17.15c23.37-13.04,23.76-10.96,45.69,2.8,2.71-.67,2.81-5.14,2-7.71-4.09-12.94-7.43-4.37-17.11-17.3-1.41-1.88-4.53-3.66-6.73-3.44-5.6.56-4.94,5.73-18.34,10.22-15.77,5.28-30.59,11.04-45.83,17.74-2.19.96-5.81,1.44-7.86,2.48-5.47,2.76-10.55,4.64-16.18,6.88l-34.19,13.63c-1.17.47-2.92.85-2.99,1.66l-.38,4.28c-.41-.19-1.5-1.02-1.43-1.49l.39-2.6c-6.24-2.44-14.4-2.2-20.5,1.03,5.37,16.76,1.98,36.05-9.77,49.73l25.33-5.92c5.63-1.32,9.89-5.23,11.3-10.99ZM48.86,154.71c6.55-9.05,5.36-19.82-.29-28.3-5.21-7.82-15.01-12.62-25.23-10.58-14.61,2.91-22.6,18.5-17.17,32.1,3.49,8.74,10.61,14.61,19.14,16.06,8.37,1.43,18.25-1.96,23.55-9.28ZM50.03,160c1.77,1.52,5.44,3.33,8.4,3.17,2.29-.12,5.98-2.84,7.18-5.15,3.1-5.92,1.35-11.98-2.66-16.79l-5.92,1.93c-.76,6.59-2.61,11.4-6.99,16.83ZM115.9,352.41c4.72,4.68,11.27,3.86,17.2,2.98,18.86-2.78,27.96,3.41,32.62-2.86,1.48-2,.5-5.32.2-8.3-1.18-11.78.07-23.93,2.42-35.59,2.83-14.04,1.57-26.53.33-40.54-1.62-18.3,9.09-58.4,7.61-79.41-11.66,3.73-21.89,6.05-33.8,8.26l1.61,22.38c1.29,11.67,3.05,23.17,2.94,34.83-.06,6.63,1.74,11.78,2.8,17.87,3.24,18.69,2.56,37.92,1.98,56.88-.19,6.1-3.22,10.93-8.46,13.65-6.32,3.27-12.73,6.76-19.76,8.23l-7.68,1.61Z"/>
  <path class="cls-1" d="M66.06,308.08c-6.32,4.9-7.62,15.36-16.83,15.58-3.93-3.81,10.42-16.36,12.61-30.54,1.84-11.91.52-23.83,1.21-35.86l1.22-21.33c.44-7.75-.53-15.73-.61-23.72-.08-7.92-1.17-15.28-2.3-23.06-1.84-12.65,2.12-9.61-2.39-24.04,2.09-.39,5.84-1.11,7.14-2.51,6.45-7,5.01-16.89-1.19-22.79,4.75-11.09-1.24-8.66,4.08-23.47,3.94-10.98,8.55-21.86,10.18-33.49,1.25-8.9,1.88-17.26,4.36-26.04,1.94-6.88,5.11-14.35,5.11-21.42,0-6.09-4.59-11.47-1.67-17.86l4,7.91c1.65-7.59,2.47-12.33,4.54-18.53,1.04,5.2-2.08,8.19-.05,13.43,2.24-5.57,2.74-9.95,3.85-16.49,13.63,4.62.08,29.93-.28,32.85l-5.74,46.71-3.28,25.86c-.84,6.63-1.63,12.62-1.83,19.36l-5.05-4c-.12,1.88.8,4.27,2.39,5.81,1.22,1.19,4.3.17,6.23-.63,22.15,10.07,32.58,15.54,58.14,14.53,7.08,11.27.89,40.13-11.13,47.94-22.62-3.08-33.2.55-56.38-2.98-2.3-.35-4.64-3.15-6.1,1.76l6.19.4-3.63,42.74c-.6,7.02-.02,13.96-1.18,20.84l-6.78,40.26c-1.22,7.25,2.57,16.45-5.49,21.46.89-3.47,1.57-5.52.66-8.67Z"/>
  <path class="cls-1" d="M181.13,176.06c-1.41,5.76-5.67,9.67-11.3,10.99l-25.33,5.92c11.75-13.68,15.14-32.97,9.77-49.73,6.1-3.22,14.26-3.46,20.5-1.03l-.39,2.6c-.07.48,1.02,1.3,1.43,1.49l.38-4.28c.07-.81,1.82-1.19,2.99-1.66l34.19-13.63c5.63-2.25,10.71-4.12,16.18-6.88,2.06-1.04,5.67-1.51,7.86-2.48,15.25-6.7,30.07-12.46,45.83-17.74,13.4-4.49,12.73-9.66,18.34-10.22,2.2-.22,5.32,1.55,6.73,3.44,9.69,12.93,13.03,4.36,17.11,17.3.81,2.57.7,7.04-2,7.71-21.94-13.76-22.32-15.83-45.69-2.8l-30.75,17.15-17.15,11.01c-14.7,9.44-28.26,20.3-44.4,27.23l-7.85,3.37,3.54,2.22Z"/>
  <path class="cls-1" d="M115.9,352.41l7.68-1.61c7.02-1.47,13.44-4.96,19.76-8.23,5.24-2.72,8.28-7.55,8.46-13.65.58-18.95,1.26-38.19-1.98-56.88-1.06-6.1-2.86-11.25-2.8-17.87.11-11.67-1.65-23.16-2.94-34.83l-1.61-22.38c11.91-2.21,22.14-4.53,33.8-8.26,1.48,21.01-9.23,61.1-7.61,79.41,1.24,14.01,2.51,26.49-.33,40.54-2.35,11.66-3.6,23.81-2.42,35.59.3,2.98,1.28,6.31-.2,8.3-4.66,6.27-13.76.09-32.62,2.86-5.93.87-12.48,1.7-17.2-2.98Z"/>
  <path class="cls-1" d="M48.86,154.71c-5.3,7.32-15.18,10.71-23.55,9.28-8.53-1.46-15.65-7.33-19.14-16.06-5.43-13.6,2.56-29.19,17.17-32.1,10.22-2.04,20.02,2.76,25.23,10.58,5.66,8.49,6.84,19.25.29,28.3Z"/>
  <path class="cls-1" d="M50.03,160c4.38-5.43,6.24-10.24,6.99-16.83l5.92-1.93c4.01,4.81,5.76,10.87,2.66,16.79-1.21,2.3-4.89,5.02-7.18,5.15-2.96.16-6.63-1.65-8.4-3.17Z"/>
</svg>