<?xml version="1.0" encoding="UTF-8"?>
<svg id="Layer_1" data-name="Layer 1" xmlns="http://www.w3.org/2000/svg" viewBox="0 0 263.97 325.43">
  <defs>
    <style>
      .cls-1 {
        fill: #fff;
      }
    </style>
  </defs>
  <path fill="currentColor" d="M191.1,277.71l-17.44-9.89c-15.44-8.75-29.65-18.59-43.42-29.97-16.65,2.76-32.4,6.25-49,7.45l-25.76,1.86c.48,10.67.12,19.88-2.27,29.85l-5.39,22.56c-2.7,11.29,3.79,16.64-.04,22.46-1.36,2.07-4.75,3.41-7.46,3.41l-35.31-.07c-1.67,0-4.27-1.71-4.87-2.99s.7-5.05,2.1-5.46c9.95-2.96,19.16-6.26,27.82-11.67l1.06-15.55.91-48.68c.09-5.02,2.75-9.73,6.16-12.83l22.48-8.78c15.56-6.08,31.62-8.75,48.39-12.61-2.14-18.72-.85-36.64,3.42-54.67-1.16-8.84,2.53-16.2,9.23-21.62,5.14-8.14,11.8-14.18,20.65-19.02-12.83-6.87-16.52-21.49-10.17-33.12,6.37-11.66,21.13-15.93,33.37-8.94l17.55-40.6c-.48-4.2-.97-9.53-.81-13.1.83-5.69,4.99-4.24,7.59-5.72,4.4-2.5,6.35-9.11,12.56-9.93,5.01-.66,8.49,3.95,7.95,9.02l-1,9.32c-.7,6.57-7.31,10.77-11.95,14.82-4.5,14.43-8.38,28.37-13.68,42.48-2.15,5.72-6.39,11.78-3.83,17.93l4.08,1.31c3.7,1.19-5.03,10.22-5.82,13.3-3.02,11.9-8.17,11.32-4.71,18.56,1.59,3.32.53,7.13-2.09,9.68-2.3,2.23-5.88,2.84-9.32.64-3.01,7.8-6.53,15.29-11.37,22.32-5.1,7.4-8.38,15.66-7.86,24.79.92,16.07,13.51,11.78,14.71,33.63,12.16,10.33,23.32,20.97,34.31,32.5,12.15,12.74,21.66,10.14,40.66,31.38,6.51,7.28,13.07,14.16,20.52,20.4,5.09,4.27,13.72,12.62,10.02,19.26-.85,1.52-4,3.66-6.01,3.66l-36.47-.04c-1.32,0-3.84-2.59-4.26-3.83-2.37-6.93,13.15-5.11,20.58-12.06l-22.92-15.8c-7.47-5.15-14.68-10.97-22.88-15.62ZM125,234.18c4.38-.89,8.28-3.95,11.91-2.45.46.19.04,1.58-.33,1.91l-2.19,1.99c13,11.38,28.25,21.34,43.41,29.86l15.49,8.71,41.55,28.13c2.94,1.99,5.44,4.58,7.48,7.55-6.32,6.61-13.6,7.5-21.78,10.87l35.74.03c.87,0,3.07-1.08,3.27-1.89,1.35-5.57-8.11-12.57-11.05-15.13-9.51-8.29-17.42-17.7-26.2-26.8-6.7-6.94-15.51-10.53-23.61-15.65-5.84-3.7-10.85-9-15.68-14.05-9.48-9.91-19.06-18.75-29.98-27.11,1.63-9.26-2.74-17.57-10.86-22l-14.78,3.07c-.66.14-2.56-.36-3.12-.67-4.12-2.28,16.43-6.21,17.63-5.86-7.07-12.91-2.17-26.71,5.77-38.23,3.15-4.58,15.74-25.25,10.54-29.89l12.87-30.54,8.93-22.04c4.74-11.69,7.68-23.67,11.34-35.84.94-3.12,2.35-7.25,4.52-9.32,3.38-3.22,8.52-5.71,9.13-10.43l1.24-9.56c.18-1.36-.47-4.21-1.61-4.74-6.5-2.99-14.35,18.45-15.89,12.24l-.59-2.37c-4.86,5.51,1.68,10.26-2.01,18.75-4.72,10.85-10.07,20.9-13.96,32.01-5.44,15.55-10.93,30.26-19.97,44.07l-10.92,16.68c-1.4-2.63-.77-4.5-.15-8.35-8.15,2.86-12.57,12.9-18.88,18.53-5.41,4.83-4.67,9.03-5.73,15.33-2.79,16.48-6.02,33.05-3.22,49.93l10.13-.98c-2.28,5.33-6.35,3.67-9.9,4.19l-1.17,6.27c-24.66,4.56-47.77,11.16-70.82,20.84-3.21,1.35-4.88,5.37-4.95,8.81l-.45,22.01c-.28,13.92-.68,26.99-1.78,40.98-.81,10.3-22.22,13.61-29.55,17.91l37.54-.07c5.37,0-1.27-11.84,1.28-22.41l4.46-18.54c2.5-10.4,4.22-20.03,3.15-31.04-.15-1.53,1.22-5.72,2.85-5.84l24.17-1.85c15.78-1.21,30.82-3.76,46.74-7.01ZM164.75,73.85c-11.42-7.1-24.63-2.75-29.34,7.8s-.49,23.74,11.88,26.85c7.48-10.75,12.73-22.18,17.46-34.65ZM180.05,98.34l-4.67-2.18-7.28,18.14c9.89-2.38.8-5.28,11.95-15.96ZM168.63,125.37l-1.41-3.77c-.39-1.05,1.11-.2,2.58-3.83.48-1.19-3.91-.66-5.09,7.63l-1.33,9.37c1.41.12,4.86-.84,5.94-2.22,1.26-1.61.17-4.89-.68-7.18Z"/>
  <path class="cls-1" d="M125,234.18c-15.93,3.25-30.96,5.8-46.74,7.01l-24.17,1.85c-1.63.12-2.99,4.32-2.85,5.84,1.07,11.01-.64,20.64-3.15,31.04l-4.46,18.54c-2.54,10.56,4.09,22.4-1.28,22.41l-37.54.07c7.33-4.3,28.74-7.61,29.55-17.91,1.1-13.98,1.49-27.06,1.78-40.98l.45-22.01c.07-3.43,1.73-7.46,4.95-8.81,23.06-9.68,46.16-16.28,70.82-20.84l1.17-6.27c3.55-.52,7.62,1.14,9.9-4.19l-10.13.98c-2.8-16.87.43-33.45,3.22-49.93,1.07-6.3.32-10.5,5.73-15.33,6.31-5.63,10.73-15.66,18.88-18.53-.62,3.85-1.25,5.72.15,8.35l10.92-16.68c9.04-13.81,14.52-28.52,19.97-44.07,3.89-11.11,9.24-21.16,13.96-32.01,3.69-8.49-2.84-13.25,2.01-18.75l.59,2.37c1.54,6.22,9.39-15.22,15.89-12.24,1.14.52,1.79,3.37,1.61,4.74l-1.24,9.56c-.61,4.72-5.74,7.21-9.13,10.43-2.17,2.07-3.59,6.2-4.52,9.32-3.66,12.17-6.6,24.14-11.34,35.84l-8.93,22.04-12.87,30.54c5.2,4.64-7.39,25.31-10.54,29.89-7.94,11.52-12.83,25.33-5.77,38.23-1.19-.35-21.74,3.58-17.63,5.86.56.31,2.45.8,3.12.67l14.78-3.07c8.12,4.43,12.49,12.74,10.86,22,10.92,8.36,20.5,17.21,29.98,27.11,4.83,5.05,9.84,10.35,15.68,14.05,8.09,5.13,16.9,8.71,23.61,15.65,8.78,9.09,16.69,18.51,26.2,26.8,2.94,2.56,12.4,9.56,11.05,15.13-.2.82-2.4,1.89-3.27,1.89l-35.74-.03c8.18-3.37,15.46-4.26,21.78-10.87-2.04-2.97-4.55-5.57-7.48-7.55l-41.55-28.13-15.49-8.71c-15.16-8.52-30.4-18.49-43.41-29.86l2.19-1.99c.37-.33.79-1.73.33-1.91-3.63-1.49-7.52,1.56-11.91,2.45Z"/>
  <path class="cls-1" d="M164.75,73.85c-4.74,12.47-9.99,23.9-17.46,34.65-12.37-3.11-16.66-16.18-11.88-26.85s17.92-14.91,29.34-7.8Z"/>
  <path class="cls-1" d="M168.63,125.37c.85,2.29,1.94,5.56.68,7.18-1.08,1.38-4.54,2.34-5.94,2.22l1.33-9.37c1.18-8.29,5.57-8.82,5.09-7.63-1.47,3.64-2.97,2.78-2.58,3.83l1.41,3.77Z"/>
  <path class="cls-1" d="M180.05,98.34c-11.15,10.69-2.07,13.58-11.95,15.96l7.28-18.14,4.67,2.18Z"/>
</svg>