<?xml version="1.0" encoding="UTF-8"?>
<svg id="Layer_1" data-name="Layer 1" xmlns="http://www.w3.org/2000/svg" viewBox="0 0 189.86 289.23">
  <defs>
    <style>
      .cls-1 {
        fill: #fff;
      }
    </style>
  </defs>
  <path fill="currentColor" d="M74.36,280.81c1.59.36,3.41,2.98,3.28,4.42-.15,1.77-2.57,3.9-4.44,3.91l-32.89.09c-1.44,0-3.91-.82-4.63-1.85s-1.29-4.18-1.09-5.54c3.18-21.81-4.77-45.19-3.41-56.07l2.76-22c2.11-16.83-.79-34.94-5.16-51.84-1.92-7.43-11.12-13.38-10.85-23.67-1.85,6.45-2.07,11.94-1.73,18.46.21,3.94,4.4,9.73,2.21,13.63l-4.91,7.07c-1.59,2.29-5.66,2.69-8.28,1.54-2.31-1.02-4.62-4.92-4.31-8.22l1.57-17.18v-44.69s.1-14.09.1-14.09c.24-38.14,19.55-23.31,16.79-36.36-8.38-2.91-15.04-7.92-17.58-15.27C-1.3,24.25-.58,14.94,5.52,8.15c10.25-11.4,29.23-10.74,38.43,1.38s5.42,28.52-7.36,35.95c-1.6.93-.02,6.63,1.78,6.71l24.62-.78c11.97-.38,23.23-1.45,34.98-3.7l40.41-7.73c2.23-5.32,5.81-8.66,11.36-10.61l12.99-4.57,9-3.22c1.32-.47,4.73-1.1,5.87-.33s2.61,2.86,3.17,4.45l8.47,23.96c.78,2.2.91,6.31-.2,8.38-2.71,5.03-11.11,3.25-14.74,7.93-7.28,9.4-14.83,17.74-22.86,26.18-10.32,10.85-23.8,14.8-35.88,22.48-16.82,10.7-30.79,24.56-50.49,31.63.04,20.23-5.32,38.31-8.21,58.02l-5.17,35.21c-1.69,11.53-3.46,22.27-1.69,33.92,8.34,3.56,15.7,5.44,24.35,7.39ZM44.7,29.99c3.07-10.28-2.33-19.76-10.36-24.06C25.79,1.36,15.26,2.75,8.34,10.27-.91,20.32,3.07,36.05,14.21,42.29s26.46,1.21,30.49-12.3ZM154.99,40.62c-1.17-.21-3.22-1.37-3.21-2.35.08-6.12,17.09-8.67,21.61-8.4-8.43,7.87,2.67,17.01-11.71,29.64-11.57,10.16-23.64,18.94-36.57,27.35-5.09,3.31-11.23,4.17-16.41,7.03-18.31,10.12-36.38,19.57-56.78,24.2-6.9,10.07-15.83,16.39-27.13,19.67,2.65,8.96,9.63,12.89,18.67,13.61-1.63,5.17-9.43.48-9.5,2.12l-.14,3.34c-.7,16.38,4.01,32.58,2.76,49.05-1.05,13.73-3.63,26.15-.74,40.17,1.68,8.15,2.95,17.24,2.72,25.55-.14,4.95-1.05,9.11-.49,14.32l37.58-.26c-4.24-4.73-27.99-3.86-29.35-13.19-1.5-10.29.38-20.23,1.89-30.5l5.68-38.73c2.68-18.3,8.63-35.57,7.9-54.89-4.75,1.09-9.28,3.65-14.19,1.41,26.44-7.63,45.83-24.17,67.49-38.61,11.82-7.88,25.01-11.13,35.15-22.32,6.66-7.35,13.73-14.74,19.68-23.03,6.77-9.42,14.33-4.97,16.52-10.13.52-1.23.16-4.42-.38-5.68-2.96-6.88-5.06-12.95-7.03-20.15-.57-2.1-2.17-5.12-3.93-5.95l-27.14,9.96c-3.42,1.26-5.04,4.77-6.43,8.81l-49.37,9.19c-21.26,3.96-35.49,1.85-54.23,4.19-3.31.41-4.91-5.54-5.62-8.52l-9.18,1.16c.66,16.51-17.88-.29-17.7,39.86l.25,57.97c0,.99-4.65,22.37,3.72,19.86,3.84-1.16.72-2.81,4.93-9.75,2.33-3.83-2.2-9.74-5.98-11.01l4.47-3.03,2.44-35.87c.83-12.18,2.88-24.1,6.1-36.31,2.93,6.89-.46,13.08-1.06,19.64-1.97,21.57-5.2,20.93,3.48,45.02,11.15-3.01,21.08-9.96,26.88-19.77-1.77-9.62-3.66-20.19-3.94-30.41l-.47-17.34c.77.27,1.83,1.55,2.8,3.17l52.14-9.77c14.34-2.69,26.82-8.23,40.29-13.4,4.63-1.78,11.11-.96,15.43-3.92.57-.39,1.99-2.3,1.33-2.41l-3.25-.59ZM54.73,114.58c17.88-5.22,34.57-12.47,50.09-23.06,10.1-2.52,18.58-6.99,27.04-13.01,11.64-8.27,23.42-16.27,32.53-27.49,3.74-4.6,2.01-11.98,2.18-17.37-4.47.88-7.67,1.82-10.33,2.99,2.47,1.11,4.95,2.34,5.73,3.8,2.9,5.43-11.01,10.48-17.11,9.27-15.03,7.69-30.77,12.52-47.39,15.61l-42.91,7.98c-1.45.27-3.9,1.39-4.85,2.57.75,11.08,0,28.5,5.01,38.7Z"/>
  <path class="cls-1" d="M154.99,40.62l3.25.59c.66.12-.76,2.02-1.33,2.41-4.32,2.97-10.8,2.14-15.43,3.92-13.47,5.17-25.96,10.71-40.29,13.4l-52.14,9.77c-.97-1.62-2.03-2.9-2.8-3.17l.47,17.34c.28,10.22,2.16,20.79,3.94,30.41-5.8,9.81-15.73,16.75-26.88,19.77-8.68-24.09-5.46-23.45-3.48-45.02.6-6.56,3.98-12.74,1.06-19.64-3.23,12.21-5.28,24.14-6.1,36.31l-2.44,35.87-4.47,3.03c3.79,1.26,8.31,7.17,5.98,11.01-4.21,6.93-1.09,8.59-4.93,9.75-8.37,2.52-3.72-18.87-3.72-19.86l-.25-57.97c-.17-40.16,18.36-23.36,17.7-39.86l9.18-1.16c.71,2.98,2.31,8.93,5.62,8.52,18.74-2.34,32.97-.23,54.23-4.19l49.37-9.19c1.39-4.04,3-7.56,6.43-8.81l27.14-9.96c1.76.84,3.36,3.86,3.93,5.95,1.97,7.2,4.07,13.27,7.03,20.15.54,1.26.9,4.45.38,5.68-2.19,5.16-9.75.71-16.52,10.13-5.95,8.29-13.02,15.68-19.68,23.03-10.14,11.19-23.33,14.44-35.15,22.32-21.66,14.44-41.04,30.98-67.49,38.61,4.91,2.24,9.45-.31,14.19-1.41.73,19.32-5.22,36.6-7.9,54.89l-5.68,38.73c-1.51,10.26-3.39,20.21-1.89,30.5,1.36,9.33,25.11,8.46,29.35,13.19l-37.58.26c-.57-5.22.35-9.38.49-14.32.23-8.31-1.04-17.39-2.72-25.55-2.88-14.02-.3-26.43.74-40.17,1.25-16.47-3.46-32.67-2.76-49.05l.14-3.34c.07-1.65,7.87,3.05,9.5-2.12-9.04-.72-16.01-4.65-18.67-13.61,11.3-3.28,20.24-9.6,27.13-19.67,20.39-4.63,38.47-14.07,56.78-24.2,5.18-2.86,11.31-3.72,16.41-7.03,12.93-8.41,25-17.19,36.57-27.35,14.38-12.63,3.28-21.77,11.71-29.64-4.52-.27-21.53,2.28-21.61,8.4-.01.98,2.04,2.14,3.21,2.35Z"/>
  <path class="cls-1" d="M44.7,29.99c-4.03,13.51-19.08,18.69-30.49,12.3S-.91,20.32,8.34,10.27C15.26,2.75,25.79,1.36,34.34,5.93c8.03,4.3,13.43,13.78,10.36,24.06Z"/>
</svg>