<?xml version="1.0" encoding="UTF-8"?>
<svg id="Layer_1" data-name="Layer 1" xmlns="http://www.w3.org/2000/svg" viewBox="0 0 281.82 265.13">
  <defs>
    <style>
      .cls-1 {
        fill: #fff;
      }
    </style>
  </defs>
  <path fill="currentColor" d="M148.78,259.53c1.53,9.09-17.11,3.48-20.64,3.62-3.21,2.6-13.59,3.44-13.66-2.57,7.69-29.68-10.27-36.88-2.73-66.72,1.06-4.18.99-8.85.49-13.08-2.99-25.13-3-49.5-.47-74.86,1.06-10.64-.68-21.66-2.37-32.1-1.96-.96-4.54-1.49-6.4-1.53l-18.17-.45c-18.84-.46-37.1-3.02-54.85-8.81-4.52,1.69-13.98,2.26-17.37.69-1.23-.57-1.63-3.57-2.07-5.21-3.05-.53-8.33-.02-10.21-2.8-1.55-2.28,2.61-5.37,4.91-5.5,5.87-.32,11.73-.67,17.7-.17,19.8,1.68,38.95,4.25,58.6,4.65,10.06.2,19.22-1.15,28.91-2.9l10.45-1.89c.93-.17,2.75-1.76,2.99-2.64,1.19-4.34-15.48-4.77-15.3-24.75.08-8.47,4.84-16.92,13.07-20.43,12.47-5.31,25.74-.12,31.24,11.4,5.57,11.66-.14,25.39-11.61,30.93-.85.41-1.24,2.81-.89,3.63,1.36,3.23,7.34,2.38,17.43,4.03s19.24,1.6,29.05,1.59h26.1c6.23,0,14.66,1.96,20.29-.51,4.89-2.15,8.1-5.65,14.05-5.82,8.2-.23,20.44-4.5,22.78-.89,2.59,3.99,3.6,7.91,4.98,12.39l5.34,2.36c-1.14,6.67,5.41,15.36-2.94,17.47-20.5,5.16-25.11,17.45-44.91,25.93-6.81,2.91-14.22,3.97-21.41,5.55-23.02,17.01-44.67,23.9-71.52,33.97-2.75,15.63-5.08,30.97-6.46,46.91l-3.62,41.75c-.61,6.97-1.58,13.7,1.29,20.38,5.13,3.6,16.79-.27,17.91,6.38ZM149.54,14.62c-3.28-6.7-10.04-10.03-16.29-10.66-6.69-.68-13.52,2.05-17.76,7.47-6.22,7.95-4.6,19.03,2.27,26.02s17.37,7.38,25.6,1.58c7.32-5.15,10.7-15.19,6.18-24.41ZM153.12,111.04c-7.43-15.89-.04-28.37-3.25-48.64,1.83.18,2.93,2.61,3.51,5.45l33.26-.25c16.86-.13,32.43-4.3,48.71-7.92,4.95-1.1,11.19,4.85,16.51-.39l-3-1.42c-.96-.45-2.23-1.44-2.65-2.18-.34-.59,1.09-2.7,1.75-2.89l8.99-2.52c-5.76-.58-11.49.14-16.78,2.02l-5.26,5.01-42.03-.99c-15.95-.38-31.01.15-46.98-2.52-1.74-.29-5.81.01-6.66-1.35s-1.84-3.9-2.66-5.96l-9.32-.21c-.45,6.05-4.51,6.94-9.34,7.7-15.9,2.52-31.2,4.49-47.22,3.23l-57.75-4.52c-3.07-.24-6.65.27-9.33,1.71l19.07,1.77c-2.5,4.82-5.56,1.8-7.92,4.52,4.51.65,10.33,1.16,13.59-1.36l3.1-2.4c.64-.5,1.32,3.5,2.56,3.91,15.08,5,38.18,7.99,55.52,8.17l21.1.21c1.27-3.02,1.8-4.34,3.78-6.76.7,4.97-1.39,8.89-1,13.33.73,8.42,2.57,16.68,1.94,25.06l-1.79,23.86c13.98,6.38,34.97,1.52,39.58-13.71ZM117.93,260.23c-.05,2.17,6.59,2.45,8.11.51,3.53-4.51-1.82-8.63.17-26.69,1.26-11.42,3.03-22.53,3.33-34.04.11-4.06.21-7.52.71-11.39,2.02-15.68,3.64-30.88,6.71-46.72,23.17-8.69,36.2-12.6,57.98-24.88,5.04-2.84,10.28-8.61,16.05-9.74,40.99-8.02,33.82-22.63,67.55-32.46.76-5.68-3.53-8.69-5.96-12.84-2.01-3.45-2.34-9.41-4.83-12.76s-7.76.46-8.34,2.59l10.12,3.23-4.49,2.83c-1.43.9,2.72,10.92-5.13,15.36-11.73,6.62-34.83,15-48.24,19.31-4.44,1.43-9.81.69-13.63,3.69-10.45,8.22-28.17,8.46-41.41,13.26-1.22,8.04-1.94,15.15-8.24,20.44.46-3.07,1.15-5.21,2.11-8.51-10.09,8.93-23.99,11.17-37.27,7.22-.57,19.7.53,38.13,2.49,57.36.53,5.18-1.51,10.48-2.27,15.59-2.76,18.64,9.75,33.85,4.47,58.65ZM156.37,106.23c11.92-3.12,24.1-4.52,34.26-9.64,7-3.52,11.93-6.2,19.94-7.33,5.23-.74,44.39-14.5,49.45-20.2,2.85-2.25,1.64-9.06,1.11-11.95l-7.94-2.09c1.64,1.76,2.66,3.58,2.31,4.86-1.8,6.76-13.63,4.5-19.05,2.44-20.65,6.24-41.71,8.97-63.51,8.58-6.54-.12-12.22.37-18.94,1.28-.1,2.91-3.65,35.63,2.37,34.06ZM146.12,259.85c-5.3-1.97-10.38-2.45-16.12-2.54,4.45,4.74,10.75,5.08,16.12,2.54Z"/>
  <path class="cls-1" d="M153.12,111.04c-4.6,15.23-25.6,20.09-39.58,13.71l1.79-23.86c.63-8.39-1.21-16.64-1.94-25.06-.38-4.44,1.7-8.36,1-13.33-1.99,2.42-2.51,3.74-3.78,6.76l-21.1-.21c-17.34-.17-40.44-3.17-55.52-8.17-1.24-.41-1.92-4.41-2.56-3.91l-3.1,2.4c-3.26,2.52-9.07,2.01-13.59,1.36,2.36-2.72,5.42.29,7.92-4.52l-19.07-1.77c2.68-1.44,6.26-1.95,9.33-1.71l57.75,4.52c16.02,1.25,31.33-.71,47.22-3.23,4.83-.77,8.9-1.66,9.34-7.7l9.32.21c.82,2.06,1.81,4.61,2.66,5.96s4.93,1.06,6.66,1.35c15.97,2.67,31.03,2.15,46.98,2.52l42.03.99,5.26-5.01c5.29-1.88,11.02-2.6,16.78-2.02l-8.99,2.52c-.65.18-2.08,2.3-1.75,2.89.42.73,1.7,1.72,2.65,2.18l3,1.42c-5.33,5.24-11.56-.71-16.51.39-16.28,3.62-31.85,7.79-48.71,7.92l-33.26.25c-.57-2.84-1.68-5.28-3.51-5.45,3.22,20.27-4.18,32.75,3.25,48.64Z"/>
  <path class="cls-1" d="M117.93,260.23c5.27-24.81-7.24-40.02-4.47-58.65.76-5.11,2.8-10.41,2.27-15.59-1.96-19.23-3.07-37.66-2.49-57.36,13.28,3.96,27.18,1.71,37.27-7.22-.96,3.31-1.65,5.45-2.11,8.51,6.3-5.28,7.02-12.4,8.24-20.44,13.24-4.8,30.96-5.04,41.41-13.26,3.82-3,9.19-2.26,13.63-3.69,13.41-4.31,36.51-12.69,48.24-19.31,7.85-4.43,3.7-14.45,5.13-15.36l4.49-2.83-10.12-3.23c.58-2.13,5.95-5.8,8.34-2.59s2.81,9.31,4.83,12.76c2.42,4.15,6.72,7.16,5.96,12.84-33.73,9.83-26.56,24.44-67.55,32.46-5.77,1.13-11.01,6.9-16.05,9.74-21.78,12.29-34.81,16.19-57.98,24.88-3.08,15.83-4.69,31.04-6.71,46.72-.5,3.86-.61,7.33-.71,11.39-.3,11.51-2.07,22.62-3.33,34.04-1.99,18.06,3.36,22.18-.17,26.69-1.52,1.95-8.16,1.66-8.11-.51Z"/>
  <path class="cls-1" d="M149.54,14.62c4.51,9.22,1.14,19.26-6.18,24.41-8.23,5.79-18.87,5.27-25.6-1.58s-8.49-18.07-2.27-26.02c4.24-5.43,11.08-8.15,17.76-7.47,6.25.63,13.01,3.96,16.29,10.66Z"/>
  <path class="cls-1" d="M146.12,259.85c-5.37,2.53-11.67,2.19-16.12-2.54,5.74.09,10.82.57,16.12,2.54Z"/>
</svg>