<?xml version="1.0" encoding="UTF-8"?>
<svg id="Layer_1" data-name="Layer 1" xmlns="http://www.w3.org/2000/svg" viewBox="0 0 276.61 367.6">
  <defs>
    <style>
      .cls-1 {
        fill: #fff;
      }
    </style>
  </defs>
  <path fill="currentColor" d="M93.64,356.92c9.82-2.42,17.77-5.51,26.23-9.59,5.32-2.57,8.35-5.47,9.48-11.83,3.24-18.11,5.05-36.63,4.26-55.25-.24-5.73-1.65-11.44-1.05-17.07,1.15-10.88,1.85-21.18,2.02-31.99l.42-26.18c-12.9-3.73-24.06-1.51-37.96-2.09-4.06-.17-7.47-1.13-11.53.18-2.31,19.84-1.73,38.66-5.05,57.92l-7.14,41.48c-.17.97,1.09,30.42-11.91,25.45-3.91,4.07-13.86,11.44-18.15,5.46-.93-1.29-1.45-4.73-.66-6.15,8.69-15.51,14.75-19.19,14.61-38.07-.1-14.34.34-28.14,1.78-42.48,2.89-28.8-2.47-39.32-2.46-63.59,0-3.25-1.2-7.03-3.37-8.69-2.57-1.98-6.62-4.2-9.44-2.43-11.93,7.51-27.03,4.84-36.06-5.19-8.9-9.88-10.49-24.82-2.53-36.16,5.29-7.53,13.64-11.44,22.16-11.64,17.05-.4,26.84,10.87,30.34,27.19,10.38-1.92.64-6.42,11.28-26.79,5.87-11.24,13.54-21.96,17.48-34.07,2.61-8.04,4.29-15.57,8.01-23.39,16.68-35.1,8.41-21.42,9.37-40.55.26-5.11,4.27-5.9,6.83-7.29,3.43-5.66,6.86-16.05,15.36-13.77,2.29.61,4.48,3.68,5.11,6.53,2.76,12.38-1.74,23.08-8.77,33.07l-5.33,22.47c-2.57,10.83-6.12,20.6-9.64,30.99l-10.97,32.43c-.99,2.94-1.64,5.95-1.79,9.49,15.2,6.59,36.65,17.06,52.75,12.47,6.81-1.94,12.22-4.3,19.62-2.46,2.99.75,6.78-.03,9.69-1.35l26.68-12.12,10.72-4.63c8.85-3.83,17.5-7.25,26.84-9.97,12.78-3.72,12.9-11.89,22.54-8.23,2.66,1.01,5.62,4.77,6.16,8.32,2.53,16.82,12.18,15.01,3.38,33.13-1.26,2.6-4.1,4.64-6.64,4.43-9.52-.76-1.93-15.38-12.53-22.53-4.29.99-24.72,14.17-27.46,16.33l-38,30.03c-3.98,3.15-6.21,5.22-8.14,10.02-2.17,5.41-2.92,10.37-3.69,16.4-3.07,23.9-17.05,56.14-16.19,72.83,2.36,46.07-14.56,46.74-9.23,78.25.42,2.46-.76,6.77-2.26,8.36-4.97,5.26-15.48,1.74-22.92,2.01-9.4.34-27.84,3.51-33.34-3.62-.89-1.15-.42-5.7,1.07-6.06ZM63.92,325.02c6.16-6,4.03-14.21,5.32-21.76l6.77-39.86,5.78-63.37-4.81-.68c-.72-.1-1.28-2.08-.66-2.47,3.66-2.29,3.42.59,13.38,1.4,18.6,1.52,28.14-.58,47.1,2.01,12.77-7.93,17.3-34.78,10.59-47.61-23.85.74-30.62-3.4-51.24-12.75-2.18-.99-4.23-.79-6.39-.49-2.73.38-6.06-4.18-3.53-7.53l3.15,4.28c2.17-7.8,4.71-15.76,7.4-23.89l7.28-22c2.62-7.93,5.7-14.97,7.91-23.14,2.6-9.62,3.24-20.54,7.63-29.5,4.54-9.25,10.95-18.09,7.72-29.24-.47-1.61-2.42-4.34-3.89-4.36-1.29-.01-4.14,1.95-4.67,3.31l-6.96,17.95-2.99-6.6c-3.12,5.65,1.27,11.75.23,17.23-1.83,9.65-6.72,18.76-10.95,27.7-3.61,7.64-5.17,15.05-7.74,22.76-4.32,12.97-12.56,24.31-18.67,36.5-8.18,16.32-.78,13.9-6.53,25.06,4.97,5.14,6.44,12.35,3.35,18.96-1.89,4.05-5.87,6.01-10.24,5.5,2.85,7.35,2.6,14.04,2.43,21.81-.1,4.67,2.05,10.05,2.26,14.9.52,12.09,1.14,23.94.18,35.89s-1.72,22.42-1.81,34.17c-.06,7.63-.24,15.64-1.61,23.03-2.61,14.08-17.18,28.19-12.21,29.24,8.2,1.72,12.11-15.67,17.2-15.24l-.77,8.76ZM178.46,183.24l-3.7-.64c-3.19-.55,7.63-4.72,7.66-4.74,11.49-7.7,21.13-16.54,31.88-25.03l9.02-7.12c2.71-2.14,30.15-20.38,33.82-17.17,7.98,8.43,5.61,21.05,9.28,22.22,2.4.77,7.71-10.67,5.68-14.86l-6.71-13.78c.95-4.63-.33-8.18-4.2-9.78-4.27-1.77-5.75,2.43-8.85,4.32-6.81,4.14-15.49,5.21-22.84,8.4l-13,5.63c-3.25,1.41-6.34,2.39-9.5,3.84l-35.08,16.07,1.61,2.91c.2.36-1.56,1.56-1.7,1.15l-1.5-4.22c-5.87-3.13-13.52-2.44-19.7.98,7.41,14.84,3.78,36.91-8.37,49.79,13.17-2.86,35.08-4.41,36.19-17.96ZM49.56,161.44c7.74-13.04,2.06-29.92-10.87-35.88-9.88-4.55-20.5-2.23-27.6,4.61-7.18,6.92-8.66,17.79-4.47,27.14,3.76,8.39,11.59,14.08,20,14.82,8.6.76,18.16-2.63,22.93-10.68ZM49.87,167.96c3.48,2.17,6.79,3.7,9.79,2.75,2.43-.77,5.34-3.35,6.47-6.05,2.25-5.36.59-10.37-2.74-15.05l-6.41,1.56c-1.22,6.78-2.96,11.99-7.12,16.79ZM137.78,363.46c3.77.5,9.4-1.07,9.3-5.45-.12-5.26-1.79-11.26-1.04-16.68,4.4-31.81,11.03-23.3,10.19-63.35-.45-21.49,16.54-56.73,17.03-81-11.76,4.14-22.49,6.48-34,8.25l-.85,20.96c-.18,13.56-.68,26.51-2.37,39.95-.55,4.34,1.58,8.61,1.71,12.6.61,18.98-1.51,38.08-4.34,56.71-1.38,9.06-6,13.45-13.89,16.69s-15.05,6.28-23.72,8.17c.84,1.15,3.46,2.98,4.91,3.04,19.56.79,17.18-2.51,37.07.12Z"/>
  <path class="cls-1" d="M63.92,325.02l.77-8.76c-5.09-.43-9.01,16.96-17.2,15.24-4.98-1.04,9.59-15.15,12.21-29.24,1.37-7.39,1.56-15.4,1.61-23.03.09-11.75.88-22.6,1.81-34.17s.34-23.79-.18-35.89c-.21-4.85-2.36-10.23-2.26-14.9.16-7.77.42-14.47-2.43-21.81,4.37.51,8.34-1.45,10.24-5.5,3.09-6.61,1.62-13.82-3.35-18.96,5.75-11.16-1.65-8.74,6.53-25.06,6.11-12.19,14.34-23.53,18.67-36.5,2.57-7.71,4.13-15.13,7.74-22.76,4.23-8.95,9.12-18.05,10.95-27.7,1.04-5.47-3.36-11.58-.23-17.23l2.99,6.6,6.96-17.95c.53-1.36,3.38-3.32,4.67-3.31,1.47.01,3.43,2.75,3.89,4.36,3.23,11.14-3.18,19.98-7.72,29.24-4.39,8.96-5.04,19.88-7.63,29.5-2.2,8.17-5.29,15.21-7.91,23.14l-7.28,22c-2.69,8.13-5.23,16.09-7.4,23.89l-3.15-4.28c-2.53,3.35.8,7.9,3.53,7.53,2.16-.3,4.21-.5,6.39.49,20.62,9.36,27.39,13.49,51.24,12.75,6.72,12.83,2.19,39.68-10.59,47.61-18.95-2.59-28.5-.49-47.1-2.01-9.96-.81-9.72-3.69-13.38-1.4-.63.39-.06,2.37.66,2.47l4.81.68-5.78,63.37-6.77,39.86c-1.28,7.55.85,15.77-5.32,21.76Z"/>
  <path class="cls-1" d="M137.78,363.46c-19.89-2.63-17.51.67-37.07-.12-1.44-.06-4.07-1.89-4.91-3.04,8.67-1.88,15.83-4.94,23.72-8.17s12.51-7.62,13.89-16.69c2.83-18.63,4.95-37.73,4.34-56.71-.13-3.98-2.26-8.26-1.71-12.6,1.69-13.44,2.18-26.39,2.37-39.95l.85-20.96c11.51-1.77,22.24-4.11,34-8.25-.49,24.27-17.49,59.51-17.03,81,.84,40.05-5.79,31.55-10.19,63.35-.75,5.42.91,11.41,1.04,16.68.1,4.38-5.53,5.95-9.3,5.45Z"/>
  <path class="cls-1" d="M178.46,183.24c-1.12,13.55-23.02,15.1-36.19,17.96,12.15-12.88,15.77-34.95,8.37-49.79,6.18-3.42,13.83-4.11,19.7-.98l1.5,4.22c.14.4,1.9-.79,1.7-1.15l-1.61-2.91,35.08-16.07c3.16-1.45,6.25-2.43,9.5-3.84l13-5.63c7.36-3.19,16.03-4.25,22.84-8.4,3.1-1.88,4.58-6.08,8.85-4.32,3.87,1.6,5.15,5.15,4.2,9.78l6.71,13.78c2.04,4.19-3.28,15.63-5.68,14.86-3.68-1.18-1.3-13.79-9.28-22.22-3.67-3.21-31.11,15.03-33.82,17.17l-9.02,7.12c-10.76,8.49-20.4,17.33-31.88,25.03-.02.02-10.85,4.18-7.66,4.74l3.7.64Z"/>
  <path class="cls-1" d="M49.56,161.44c-4.77,8.05-14.33,11.44-22.93,10.68-8.4-.74-16.24-6.43-20-14.82-4.19-9.35-2.72-20.21,4.47-27.14,7.1-6.84,17.72-9.17,27.6-4.61,12.93,5.96,18.61,22.84,10.87,35.88Z"/>
  <path class="cls-1" d="M49.87,167.96c4.16-4.8,5.9-10.01,7.12-16.79l6.41-1.56c3.33,4.68,4.99,9.69,2.74,15.05-1.13,2.7-4.05,5.28-6.47,6.05-3,.95-6.31-.57-9.79-2.75Z"/>
</svg>