<?xml version="1.0" encoding="UTF-8"?>
<svg id="Layer_1" data-name="Layer 1" xmlns="http://www.w3.org/2000/svg" viewBox="0 0 212.22 405.54">
  <defs>
    <style>
      .cls-1 {
        fill:#ffffff;
      }
    </style>
  </defs>
  <path fill="currentColor" d="M80.2,170.69c-.43,17.26-12.77,12.93-5.27,35.85,5.67,17.31,16.01,31.61,29.26,43.79,6.8,6.25,12.82,12.42,18.88,19.66,7.9-17.55,25.32-27.69,44.2-25.67,21.93,2.35,37.98,20.03,38.52,41.6s-15.06,39.66-36.75,43.06c-15.78,2.47-30.71-4.56-40.72-17.13l-7.25,2.97-2.12,20.37-2.39,27.92c13.48,2.24,25.49,4.58,38.53,7.46,6.8,1.5,13.34,1.62,20.33,1.06,11.26-.91,33.12,4.52,34.74,14.06,1.09,6.37-11.08,5.35-12.71,5.94,2.92,1.65,5.49,4.35,5.7,7.17.68,8.87-19.73,6.69-26.61,6-23.72-2.37-46.83-3.29-70.59-4.15-7.23-.26-14.16-1.03-21.3-1.81-5.68-.63-9.54-5.31-9.99-11.07-.9-11.45-.41-22.84.97-34.47l5.01-42.22c-25.2-14.21-43.62-44.79-54.38-70.94C4.87,188.11-1.97,135.64.47,79.48c.84-19.34,2.58-37.82,6.19-56.8C9.62,7.06,24.22-3.22,40.08.92c12.6,3.29,24.55,8.3,36.59,13.89l55.46,25.74c11.51,5.34,22.67,8.95,34.92,12.06,13.81,3.51,26.8,6.66,40.96,8.95,2.17.35,4.22,3.42,4.21,5.25,0,2.02-1.32,5.73-3.41,6.86-18.89,10.24-28.27,1.69-42.21,9.98-5.5,3.27-11.93,5.53-18.29,3.5-11.03-3.52-5.73-17.09-18.59-19.52-12.88-2.43-25.68-4.49-38.82-5.86-14.8-1.54-28.01-5.18-40.57-13.26l1.84,11.95c.24,1.53,2.23,4.44,3.6,5.36,13.11,8.8,25.14,17.65,37.49,27.41,10.49,8.28,20.53,16.05,31.51,23.74,3.29,2.31,7.63,3.98,11.42,5.35,9.1,3.3,17.62,6.6,26.47,10.39,15.42,6.6,26.52,3.36,27.4,10.24,1.41,11.01-19.2,13.17-27.72,12.44-21.33-1.81-24.34,9.82-36.75,3.52-6.87-3.49-6.63-15.08-10.68-17.2-14.68-7.68-34.46-12.72-49.58-20.03l2.21,17.88c8.44,8.56,12.98,18.67,12.66,31.15ZM46.05,40.02c.56.19,1.59.59,2.39,1.02,28.46,15.45,27.61,12.99,59.87,17.08,8.71,1.1,17.3,2.92,25.75,4.79,1.87-4.43,3.92-8.75,6.45-12.34l-48.14-22.09c-16.72-7.67-32.81-15.08-50.02-21.13-7.1-2.49-14.16-2.02-20.77,2.23-4.55,2.92-8.37,8.59-9.55,15.77-6.89,41.96-7.69,84.45-3.04,126.85,1.05,9.6,2.88,18.07,5.25,27.13,4.71,3.17,8.88,6.26,14.34,8.87,10.88,5.2,27.56,7.09,37.7-1.11,12.67-10.25,9.51-30.26-.56-40.98-3.63-3.86-4.93-7.2-5.13-12.3-.91-22.97-4.96-44.74-12.24-66.6-.98-2.95-7.31-28.9-2.3-27.18ZM180.35,73.8c9.21-.23,19.18-.13,26.84-6.7-11.9-2.17-22.35-3.79-33.06-6.73l-29.67-8.15c-.79,4.4-2.85,8.68-5.07,12.34,5.95,7.04,6.19,20.82,16.92,17.32,11.37-3.71,10.23-7.75,24.04-8.09ZM114.47,134.44l7.99-12.07c-23.68-16.27-42.38-33.13-66.11-48.88,4.25,14.6,7.06,27.08,8.27,41.46,7.17,3.48,14.29,6.44,21.81,9.13l28.05,10.37ZM184.88,144.24c-10.62-1.88-19.36-4.49-28.66-8.01l-30.25-11.44c-2.11,4.13-4.5,8.17-7.06,11.9,5.31,6.23,5.24,15.31,10.13,17.47,2.31,1.02,6.16.81,8.6-.36,20.76-9.93,31.68,2.08,47.25-9.57ZM158.14,390.22l-37.24-7.51c-7.48-1.51-14.08-2.34-21.98-3.39-1.56-.21-2.61-4.03-2.34-6.13,3.43-25.8,8.11-50.52,13.75-75.88.3-1.34,1.37-2.91,2.29-3.05s2.77,2.15,2.61,3.11l-2.38,14.1,12.35-4.5c-4.22-8.03-5.11-15.18-6.24-23.48-1.43-10.49-8.05-19.29-15.82-26.06-13.52-11.8-24.25-25.5-31.13-42.02-2.8-7.3-4.69-14.27-4.99-22.53-17.71,8.53-36.91,5.33-52.33-7.91,9.62,39.95,29.98,96.77,66.25,119.36l.31-5.27c.05-.93,1.53-2.68,2.43-2.75,9.17-.64-10.09,84.7-1.78,94.81,1.02,1.24,4.29,2.29,6.19,2.43l22.22,1.62,47.11,2c13.51.57,26.34,3.43,40.33,1.49-11.59-9.11-25.65-11.55-39.62-8.44ZM126.05,290.95c3.47,23.83,26.54,37.82,48.2,30.73,21.52-7.05,32.32-31.83,21.1-52.48-8.72-16.05-27.44-23.21-44.75-17.42-15.68,5.25-27.14,21.38-24.55,39.16ZM165.77,377.06c-12.32-.2-23.92-3.99-35.37-5.87l-19.13-3.14c-.41-9.42.29-17.64,1.27-26.8l2.55-23.85c-1.18-.42-3.71.6-3.9,1.73l-9.16,54.9c10.75,1.26,19.72,3.01,29.61,4.97l27.65,5.5c19.35-5.15,25.04,3.81,45.05,1.12-11.82-9.51-24.64-8.34-38.58-8.57Z"/>
  <path class="cls-1" d="M46.05,40.02c-5.01-1.71,1.32,24.23,2.3,27.18,7.29,21.86,11.33,43.64,12.24,66.6.2,5.1,1.5,8.44,5.13,12.3,10.07,10.71,13.23,30.73.56,40.98-10.14,8.2-26.82,6.32-37.7,1.11-5.46-2.61-9.63-5.7-14.34-8.87-2.37-9.06-4.2-17.53-5.25-27.13-4.66-42.4-3.86-84.89,3.04-126.85,1.18-7.18,5-12.85,9.55-15.77,6.61-4.25,13.67-4.72,20.77-2.23,17.22,6.05,33.3,13.46,50.02,21.13l48.14,22.09c-2.53,3.58-4.58,7.91-6.45,12.34-8.45-1.86-17.04-3.68-25.75-4.79-32.26-4.09-31.41-1.63-59.87-17.08-.79-.43-1.82-.83-2.39-1.02Z"/>
  <path class="cls-1" d="M158.14,390.22c13.98-3.11,28.03-.66,39.62,8.44-14,1.94-26.82-.92-40.33-1.49l-47.11-2-22.22-1.62c-1.9-.14-5.17-1.19-6.19-2.43-8.31-10.11,10.95-95.46,1.78-94.81-.91.06-2.38,1.82-2.43,2.75l-.31,5.27c-36.27-22.58-56.63-79.4-66.25-119.36,15.43,13.24,34.62,16.43,52.33,7.91.3,8.26,2.19,15.23,4.99,22.53,6.88,16.52,17.61,30.22,31.13,42.02,7.76,6.77,14.38,15.57,15.82,26.06,1.14,8.3,2.02,15.45,6.24,23.48l-12.35,4.5,2.38-14.1c.16-.96-1.69-3.25-2.61-3.11s-1.99,1.71-2.29,3.05c-5.64,25.36-10.33,50.08-13.75,75.88-.28,2.1.77,5.92,2.34,6.13,7.9,1.05,14.5,1.88,21.98,3.39l37.24,7.51Z"/>
  <path class="cls-1" d="M126.05,290.95c-2.59-17.79,8.87-33.92,24.55-39.16,17.31-5.79,36.03,1.36,44.75,17.42,11.21,20.65.41,45.43-21.1,52.48-21.65,7.09-44.73-6.9-48.2-30.73Z"/>
  <path class="cls-1" d="M114.47,134.44l-28.05-10.37c-7.52-2.69-14.64-5.65-21.81-9.13-1.21-14.37-4.02-26.85-8.27-41.46,23.73,15.74,42.43,32.61,66.11,48.88l-7.99,12.07Z"/>
  <path class="cls-1" d="M180.35,73.8c-13.81.34-12.67,4.38-24.04,8.09-10.73,3.5-10.97-10.28-16.92-17.32,2.22-3.66,4.28-7.94,5.07-12.34l29.67,8.15c10.71,2.94,21.17,4.56,33.06,6.73-7.66,6.57-17.64,6.47-26.84,6.7Z"/>
  <path class="cls-1" d="M184.88,144.24c-15.57,11.65-26.48-.36-47.25,9.57-2.45,1.17-6.29,1.38-8.6.36-4.88-2.16-4.82-11.24-10.13-17.47,2.56-3.73,4.95-7.76,7.06-11.9l30.25,11.44c9.3,3.51,18.04,6.13,28.66,8.01Z"/>
  <path class="cls-1" d="M165.77,377.06c13.94.22,26.76-.94,38.58,8.57-20.01,2.68-25.7-6.27-45.05-1.12l-27.65-5.5c-9.9-1.97-18.87-3.72-29.61-4.97l9.16-54.9c.19-1.13,2.72-2.15,3.9-1.73l-2.55,23.85c-.98,9.16-1.68,17.38-1.27,26.8l19.13,3.14c11.45,1.88,23.05,5.67,35.37,5.87Z"/>
</svg>