<?xml version="1.0" encoding="UTF-8"?>
<svg id="Layer_1" data-name="Layer 1" xmlns="http://www.w3.org/2000/svg" viewBox="0 0 374.18 138.24">
  <defs>
    <style>
      .cls-1 {
        fill:#ffffff;
      }
    </style>
  </defs>
  <path fill="currentColor" d="M124.38,53.65c-15.35-3.32-29.89-6.86-44.98-11.1-.6,16.56-1.76,33.06-3.23,49.66-.68,7.71-.13,14.37,2.41,21.85.96,2.83.57,8.79-3.18,9.08l-10.59.82c.53,3.05,1.11,6.41.63,9.77-.31,2.14-4.7,3.72-6.84,3.76l-38.9.71c-5.44.1-18.92.5-19.68-5.96-.21-1.79,1.69-5.61,3.4-6.26l10.82-4.11-.6-4.35c-.8-5.82,21.28-3.75,24.17-6.68-.75-33.33-3.4-59.49-1.88-92.51.47-10.35,7.08-16.84,16.62-17.91,8.08-.91,15.98.01,23.94-.14,33.88-.64,65.43,8.76,98.68,13.12,41.47,5.44,81.9,15.73,114.66,44.26,3.53-18.27,17.07-31.18,33.3-34.33,18.1-3.51,36.43,4.13,45.29,19.74,10.33,18.2,6.49,40.61-9.09,53.64s-38.41,13.39-54.81-.26c-7.31,6.89-15.07,12.09-24.65,14.47-31.81,7.91-68.96,8.85-101.88,10.44-7.14.34-38.11,2.62-39.97-6.18-.44-2.1.91-6.03,2.76-7.05,12.77-6.98,26.01-5.5,39.92-5.34,15.66.17,44.47-4.62,59.29-10.56-20.86-12.23-47.15-19.61-70.22-18.13-13.08.84-24.53-2.99-33.21-13.34-3.08-3.68-6.86-5.96-12.18-7.11ZM248.66,90.67l12.61-4.38c.91-.32,2.9.29,3.35,1.12s-.62,3.46-1.58,3.81c-8.79,3.18-37.28,11.99-45.4,13.08-11.98,1.61-23.97,4.49-35.88,4.37-9.84-.1-18.19-2.45-27.84,1.54-2.98,1.23-7.54.86-10.53,3.57,11.47,3.57,22.35,2.04,33.76,1.71,34.11-.96,73.26-2.35,106.12-11.75,11.84-3.39,9.06-10.92,12.17-17.07-3.04-6.74-6.03-13.7-5.67-22.15-30.47-24.85-67.85-40.65-107.91-43.8.83,2.05,1.64,4.95,1.22,6.33-3.97.46-5.96-3.29-7.77-6.1C136,10.29,95.63,4.6,54.99,5.9c-8,.26-13.3,5.2-13.36,13.05-.12,15.02-.44,29.77.22,44.83l1.89,43.12c.15,3.43-.65,8.43-3.46,10.29-10.66,7.07-22.22,9.29-34.38,14.19,14.49,2.27,27.34.84,40.81.39l13.5-.45-3.25-17.48c-.94-5.06,5.94-54.15,5.04-78.14-.03-.89.41-2.59.74-3.28.25-.53,2.4-.68,3.34-.36,18.02,6.12,38.64,11.57,57.67,15.51s16.59,15.98,34.1,20.04c6.85,1.59,14.86.43,19.67-4.86,10.27-11.3,3.25-23.85,7.85-26.62,6.18-3.71,4.03,23.32-1.74,28.45l-3.45,4.24c27.24.73,46.29,8.79,68.48,21.83ZM345.19,30.76c-17.71-7.14-37.2.96-45.51,16.84-8.61,16.46-3.44,35.92,11.39,46.53,14.8,10.58,35.08,8.34,47.8-5.45,8.2-8.89,11.48-21.29,8.34-33.25-2.8-10.69-10.21-19.91-22.03-24.68ZM73.53,117.15c-1.35-6.7-3.99-11.63-3.6-17.29l4.1-58.96-6.61-2.38c-.1,5.93,1.01,10.9.48,16.27l-4.5,45.04c-.61,6.13-.62,11.37-.5,17.8,4.03.51,7.53.46,10.64-.48Z"/>
  <path class="cls-1" d="M248.66,90.67c-22.19-13.05-41.23-21.1-68.48-21.83l3.45-4.24c5.77-5.13,7.92-32.16,1.74-28.45-4.6,2.76,2.42,15.32-7.85,26.62-4.8,5.29-12.82,6.44-19.67,4.86-17.51-4.06-14.89-16.06-34.1-20.04s-39.65-9.38-57.67-15.51c-.94-.32-3.09-.17-3.34.36-.33.7-.77,2.39-.74,3.28.89,23.98-5.98,73.07-5.04,78.14l3.25,17.48-13.5.45c-13.47.45-26.32,1.88-40.81-.39,12.17-4.9,23.72-7.13,34.38-14.19,2.81-1.87,3.61-6.87,3.46-10.29l-1.89-43.12c-.66-15.06-.33-29.81-.22-44.83.06-7.85,5.36-12.79,13.36-13.05,40.64-1.3,81.01,4.39,120.34,15.04,1.81,2.81,3.8,6.56,7.77,6.1.41-1.39-.39-4.29-1.22-6.33,40.06,3.16,77.44,18.95,107.91,43.8-.36,8.45,2.63,15.41,5.67,22.15-3.11,6.15-.33,13.69-12.17,17.07-32.86,9.4-72.01,10.78-106.12,11.75-11.41.32-22.28,1.86-33.76-1.71,2.99-2.71,7.55-2.34,10.53-3.57,9.65-3.99,18-1.64,27.84-1.54,11.9.12,23.9-2.77,35.88-4.37,8.12-1.09,36.61-9.9,45.4-13.08.96-.35,2.03-2.98,1.58-3.81s-2.44-1.43-3.35-1.12l-12.61,4.38Z"/>
  <path class="cls-1" d="M345.19,30.76c11.83,4.77,19.23,13.99,22.03,24.68,3.13,11.96-.14,24.36-8.34,33.25-12.72,13.78-33,16.03-47.8,5.45-14.84-10.61-20-30.07-11.39-46.53,8.31-15.88,27.8-23.98,45.51-16.84Z"/>
  <path class="cls-1" d="M73.53,117.15c-3.11.94-6.61,1-10.64.48-.12-6.43-.11-11.67.5-17.8l4.5-45.04c.54-5.37-.58-10.34-.48-16.27l6.61,2.38-4.1,58.96c-.39,5.66,2.25,10.59,3.6,17.29Z"/>
</svg>