<?xml version="1.0" encoding="UTF-8"?>
<svg id="Layer_1" data-name="Layer 1" xmlns="http://www.w3.org/2000/svg" viewBox="0 0 271.71 157.34">
  <defs>
    <style>
      .cls-1 {
        fill: #fff;
      }
    </style>
  </defs>
  <path fill="currentColor" d="M104.2,144.94l-57.9,4.83c-2.65,2.49-5.93,3.98-9.5,4.18l-13.22.75c-6.6.38-23.39,2.6-23.57-3.9-.05-1.74,2.09-4.38,4.02-5.09,9.77-3.55,18.48-7.25,27.34-12.65,3.06-1.86,7.18.64,10.42.15,9.07-1.37,18.47-3.88,26.85-7.04,12.22-4.61,23.43-2.61,35.59-3.98,18.91-2.13,36.67-10.33,55.34-13.77,7.45-11.89,19.34-13.97,31.98-12.03,8.98,1.38,18.16-6.43,22.41-13.73,8.15-14.03,6.52-22.46,19.69-31.93-12.53-6.52-18.22-20.23-14.15-32.33,4.57-13.6,18.03-21.04,31.96-17.53,11.87,2.99,20.16,13.38,20.26,24.97.11,12.46-7.38,23.07-20.15,26.4l2.23,13.07c1.01,5.92,2.11,11.75,3.47,17.53,2.07,8.81-1.04,16.62-9.3,20.95-10.32,5.42-4.72,6.6-12.49,11.37l-2.78,19.92c-.35,2.53-.45,5.25-.5,7.89,5.7-.59,30.27,3.06,27.21,11.44-.45,1.22-3.08,2.92-4.49,2.93h-29.1c-4.82,0-7.83-3.71-7.92-8.19l-.5-24.32c-30.57,14.24-63.11,19.9-96.59,19.82-5.43-.01-10.71-.19-16.61.3ZM257.18,45.08c12.1-7.52,13.37-24.61,3.68-34s-25.22-9-34.03,2.48c-6.61,8.61-5.34,20.75,1.96,28.37s18.66,9.2,28.4,3.16ZM241.95,73.87c.31-.92,2.52-2.29,3.1-1.81s1.21,1.92.96,2.61c-4.04,10.73-7.3,21.01-9.28,32.63l4.98-5.23c3.96-2.74,12.1-5.07,11.8-11.95-.35-8.03-2.38-16.52-4.05-24.59-1.13-5.45-6.45-8.16-10.91-11.33,2.99-1.69,6.45-.58,8.88,1.72.06-.9.14-2.93-.62-3.08l-3.17-.65c-3.06-.63-5.12.57-7.62,2.51-3.13,2.43-9.06,5.72-8.48,10.15.21,1.59,1.68,4.75,1.41,6.34-7.79,44.39-6.92,32.33-6.94,77.83,0,2.3,2.48,4.34,4.54,4.32l28.25-.33c-12.07-8.69-27.97-1.68-27.18-9.58,3.46-34.46,3.39-37.23,14.32-69.57ZM184.67,132.03c-11.15-2.04-18.93-8.85-17.83-19.39,5.52,2.63,2.16,11.44,14.12,14.67l10.06,2.72c9.19-2.5,18.46-5.88,26.56-10.72,1.02-12.35,2.83-23.39,4.88-35.26l2.21-12.81-6.71,13.32c-3.98,7.9-11.51,13.49-20.14,15.57l-1.69,4.41c-11-8.61-26.96-4.88-33.55,7.49l-19.72,5.31c-.55,8.14-.07,14.58,3.43,21.77,13.42-1.32,26.1-3.87,38.37-7.08ZM39.72,148.37c2.79-.41,6.79-3.39,9.74-3.64l35.11-2.94c6.68-.56,13.4-1.62,20.09-1.27,4.94.26,9.26.19,14.13-.04l25.4-1.19c-2.91-6.86-4.1-14.1-3.95-20.91-12.51,2.53-24.2,6.99-36.45,8.59-6.56.86-13.46-1.32-19.95.1-10.07,2.2-19.42,4.89-29.23,7.93-4.66,1.44-9.59,2.34-14.23,2.91-3.17-1.55-6.16-1.33-8.94.17-8.7,4.67-16.88,7.86-26.46,12.28,12.4.29,23.08-.26,34.75-1.99Z"/>
  <path class="cls-1" d="M184.67,132.03c-12.27,3.21-24.95,5.76-38.37,7.08-3.5-7.19-3.98-13.63-3.43-21.77l19.72-5.31c6.58-12.36,22.55-16.09,33.55-7.49l1.69-4.41c8.63-2.09,16.16-7.68,20.14-15.57l6.71-13.32-2.21,12.81c-2.05,11.87-3.86,22.91-4.88,35.26-8.1,4.83-17.37,8.22-26.56,10.72l-10.06-2.72c-11.96-3.23-8.59-12.04-14.12-14.67-1.1,10.54,6.68,17.35,17.83,19.39Z"/>
  <path class="cls-1" d="M39.72,148.37c-11.66,1.73-22.34,2.28-34.75,1.99,9.58-4.42,17.76-7.61,26.46-12.28,2.79-1.5,5.78-1.72,8.94-.17,4.65-.57,9.58-1.47,14.23-2.91,9.8-3.04,19.16-5.73,29.23-7.93,6.5-1.42,13.39.76,19.95-.1,12.25-1.6,23.94-6.06,36.45-8.59-.15,6.81,1.04,14.05,3.95,20.91l-25.4,1.19c-4.87.23-9.2.29-14.13.04-6.69-.35-13.41.71-20.09,1.27l-35.11,2.94c-2.95.25-6.95,3.22-9.74,3.64Z"/>
  <path class="cls-1" d="M257.18,45.08c-9.73,6.05-21.26,4.3-28.4-3.16s-8.56-19.76-1.96-28.37c8.81-11.48,24.17-12.04,34.03-2.48s8.42,26.48-3.68,34Z"/>
  <path class="cls-1" d="M241.95,73.87c-10.93,32.34-10.86,35.1-14.32,69.57-.79,7.89,15.11.89,27.18,9.58l-28.25.33c-2.06.02-4.54-2.02-4.54-4.32.02-45.5-.85-33.44,6.94-77.83.28-1.58-1.2-4.74-1.41-6.34-.58-4.43,5.35-7.73,8.48-10.15,2.5-1.94,4.56-3.14,7.62-2.51l3.17.65c.75.16.67,2.18.62,3.08-2.42-2.3-5.89-3.41-8.88-1.72,4.46,3.17,9.78,5.88,10.91,11.33,1.67,8.07,3.7,16.56,4.05,24.59.3,6.88-7.84,9.21-11.8,11.95l-4.98,5.23c1.98-11.62,5.24-21.91,9.28-32.63.25-.7-.38-2.14-.96-2.61s-2.79.89-3.1,1.81Z"/>
</svg>