<?xml version="1.0" encoding="UTF-8"?>
<svg id="Layer_1" data-name="Layer 1" xmlns="http://www.w3.org/2000/svg" viewBox="0 0 73.74 325.26">
  <defs>
    <style>
      .cls-1 {
        fill: #fff;
      }
    </style>
  </defs>
  <path fill="currentColor" d="M38.66,245.83c-.61,7.08,1.26,13.05,2.15,19.34,1.57,11.04.27,22.06-.65,33.2-1.1,13.2,4,19.77,1.15,23.19-4.17,5-29.82,3.63-37.11,3.26-1.49-.07-4.04-2.62-4.17-4-.66-7.02,14.68-5.28,23.56-13.29-.35-16.42-1.18-31.73-5.01-47.22-5.08-20.56-7.87-40.73-9.72-61.84-1.42-16.21-3.85-31.64-2.11-48.01,1.75-16.56,5.38-29.56,16.36-43.26-7.97-4.28-12.05-11.44-12.55-19.43-.54-8.6,3.46-16.68,10.9-21.32,5.78-3.6,12.39-4.01,18.81-2.08l11.48-36.83c.82-2.64.45-7.02.74-10.04.35-3.73,2.36-5.11,4.86-7.6,3.8-3.79,5.57-11.26,11.57-9.64,4.14,1.12.88,6.62,4.82,13.32.52,7.09-6.11,12.4-8.18,18.68-1.55,4.68-2.36,9.95-3.2,14.9-1.57,9.28-3.47,17.62-6.19,26.79-.97,3.27.06,9.09,1.53,12.16,1.02.47,4.05.92,5.23,1.09,2.11,4.15-1.61,8.92-4.59,11.63-.67,3.3-1.36,7.28-2.97,10.13-4.43,7.87,3.32,8.42-.63,16.01-1.03,1.99-4.14,2.96-7.17,1.62,2.85-2.83,5.12-4.79,4.03-8.51-.8-2.75-3.05-5.65-6.78-6.17,7.56,27.3-11.08,42.02-5.79,66.17.99,4.53,3.07,9.92,4.61,13.92,3.59,9.33-.9,15.82-3.37,24.07-2.65,8.87-.73,19.7-1.6,29.79ZM35.26,257.4c-1.59-8.4-.96-16.81-.68-25.03l.62-18.22c4.35-5.57,7.98-13.7,3.43-19.9-3.77-5.14-11.18-2.75-17.74-2.97,3.65-6.11,11.88-4.32,17.26-2.37-12.88-31.04,7.44-43.54,3.46-70.86-2.83,2.91-1.56,7.64-6.95,7.19,13.12-30.85,20.49-60.57,26.41-94.19l7.15-11.74c-5.95-2.55.22-6.93-.96-14.92-5.45,2.33-4.6,8.1-7.57,11.19-3.33,3.47-2.34,6.29-3.65,10.79l-11.76,40.61c-4.81,16.62-8.39,33.21-19.1,47.09-8.63,2.31-13.15,28.01-14.02,36.11-1.52,14.12-.48,28.23,1.94,41.9l2.75-.7c5.23-1.33-2.95,2.9-2.69,5.86,1.86,21.36,4.49,41.33,9.5,61.9,4.01,16.49,4.81,32.97,5,50.44-6.96,5.82-14.8,8.32-23.39,10.6,11.33,1.15,22.04.57,33.69-.57-6.33-29.94,3.64-28.84-2.68-62.22ZM39.64,68.79c-10.98-4.57-22.13,2.35-24.36,13.27-1.88,9.2,2.03,18.62,11.68,22.04,6.51-10.72,10.09-22.41,12.68-35.32ZM57.23,90.68c-1.83-1.72-3.2-4.36-4.14-7.18l-7.17,24.64c2.39-.95,6.21-2.89,7.54-4.55-.48-9.51,7.85-9.07,3.77-12.91Z"/>
  <path class="cls-1" d="M35.26,257.4c6.32,33.38-3.65,32.28,2.68,62.22-11.65,1.14-22.36,1.72-33.69.57,8.59-2.27,16.42-4.78,23.39-10.6-.19-17.47-.99-33.95-5-50.44-5.01-20.57-7.64-40.54-9.5-61.9-.26-2.96,7.92-7.19,2.69-5.86l-2.75.7c-2.41-13.67-3.46-27.78-1.94-41.9.87-8.09,5.4-33.8,14.02-36.11,10.71-13.88,14.29-30.46,19.1-47.09l11.76-40.61c1.31-4.51.32-7.32,3.65-10.79,2.96-3.09,2.11-8.86,7.57-11.19,1.18,7.99-4.99,12.37.96,14.92l-7.15,11.74c-5.92,33.62-13.29,63.34-26.41,94.19,5.39.46,4.11-4.28,6.95-7.19,3.98,27.31-16.34,39.81-3.46,70.86-5.38-1.95-13.61-3.74-17.26,2.37,6.56.21,13.97-2.17,17.74,2.97,4.55,6.2.93,14.33-3.43,19.9l-.62,18.22c-.28,8.21-.92,16.62.68,25.03Z"/>
  <path class="cls-1" d="M39.64,68.79c-2.58,12.91-6.17,24.59-12.68,35.32-9.65-3.43-13.55-12.84-11.68-22.04,2.23-10.92,13.38-17.84,24.36-13.27Z"/>
  <path class="cls-1" d="M57.23,90.68c4.08,3.83-4.25,3.4-3.77,12.91-1.33,1.65-5.15,3.6-7.54,4.55l7.17-24.64c.94,2.82,2.31,5.46,4.14,7.18Z"/>
</svg>