<?xml version="1.0" encoding="UTF-8"?>
<svg id="Layer_1" data-name="Layer 1" xmlns="http://www.w3.org/2000/svg" viewBox="0 0 448.03 282.4">
  <defs>
    <style>
      .cls-1 {
        fill:#ffffff;
      }
    </style>
  </defs>
  <path fill="currentColor" d="M264.95,78.12c-23.46-17.1-58.11-23.35-81.6-5.75-12.09,9.06-25.97,13.63-41.38,10.38-8.13,3.33-14.55,8.56-21.54,13.66l-30.47,22.24c5.94,11.47,11.4,22.41,13.47,34.87,2.48,14.9,3.89,29.33,5.23,44.43.92,10.29,2.16,20.29,5.58,29.88,2.41,6.77,8.22,18.81,2.61,24.29-1.65,1.61-5.78,3.42-8.6,3.44l-30.98.23,1.47,10.28c.75,5.23-3.63,10.26-9.01,10.62l-21.86,1.47c-13.75.92-27.11.89-40.75-.37-3.74-.35-6.82-3.4-7.09-6.39-.32-3.52,2.32-7.19,6.26-8.23,14.95-3.93,28.81-8.3,42.88-16.44l-11.07-51.91c-4.99-23.41-9.96-46.1-13.52-69.71-1.89-12.48,1.09-22.75,10.01-31.8,29.34-29.79,63.16-55.36,101.41-72.99,10.8-4.98,21.8-7.49,32.86-11.31,40.68-14.03,82.31-11.84,120.68,7.36,25.38,12.7,44.25,33.71,53.47,60.32,8.27,23.89-2.43,24.43,10.05,35.58,22.68-12.02,49.91-1.86,58.63,21.97,8.22,22.47-3.64,46.22-26.96,52.64,11.44,20.32,14.14,37.45,19.81,58.99,9.48-.65,17.69.58,26.06,3.35,6.63,2.19,18.38,4.92,17.38,12.02-.27,1.93-3.24,5.1-5.4,5.2l-15.69.74c4.1,1.8,12.56,5.77,9.47,11.7-.82,1.57-3.94,3.41-6.38,3.41l-48.87.07c-7.28.01-9.02-2.5-11.03-8.69l-24.04-74.17c-8.92-27.52-23.83-52.36-38.97-76.88-5.09-8.24-12.84-14.46-18.59-22.31-6.42-8.76-14.84-15.91-23.53-22.24ZM430.74,276.98c-4.26-4.64-8.91-4.53-13.43-6.29-24.47-9.52-32.22.27-33.96-7.89-4.37-20.55-7.24-40.8-14.99-60.44l-33.57-85.04c-3.32-8.42-6.98-17.35-10.61-25.42-.43-.95,1.21-3.46,2.1-3.16.71.23,2.72,1.3,3.1,2.13l8.3,18.39c9.21-15.13-3.35-42.05-13.25-55.74-12-16.58-28.03-28.54-47.1-36.14-34.08-13.58-65.48-15.63-100.72-4.74l-17.62,5.44c4.8,1.95,9.41,3.27,13.41,5.53,13.77,7.78,18.23,24.4,13.66,39.99,46.31-21.7,90.93,7.25,116.53,45.35l1.7-3c.24-.43,1.88,1.53,2.16,2.04l13.93,25.6c11.26,20.7,23.42,40.5,30.74,62.96l24.12,74.07c1.26,3.86,1.87,6.44,6.71,6.44l48.8-.06ZM68.72,242.17c-1.49-18.84-1.8-37.14-1.87-56.2-.07-20.47-2.68-39.63-10.54-58.51-1.47-3.54.06-6.47,3.17-8.02l23.21-11.63c17.28-8.66,33.81-17.45,50.24-27.62,4.15-2.57,8.1-3.1,13.04-2.6,10.8,1.1,23.12-.47,30.64-8.89,11.21-12.55,6.49-31.41-6.4-40.86-8.71-6.39-20.83-7.68-31.18-2.65-38.26,18.56-72.9,43.57-101.96,74.57-5.99,6.39-8.48,13.7-7.15,22.33,3.03,19.65,6.6,38.54,10.89,57.97l12.69,57.54c1.08,4.89,2.16,11.96-2.86,15.05-12.71,7.81-27.09,11.69-41.4,15.44-.82.21-2.72,1.77-3.29,2.41-4.47,5.03,57.46,1.24,61.26,1,11.32-.73,2.51-16.54,1.5-29.3ZM108.54,250.17c1.4,0,4.44-2.18,4.75-3.44s.15-4.1-.41-5.52c-4.63-11.94-7.7-23.38-9.19-36.12l-5.11-43.86c-1.75-15-6.91-28.44-14.74-41.25-.97-1.58.21-4.4,1.6-5.24,3-2.03,5.34-3.51,7.58-6.02l-31.5,16.01c3.36,8.58,5.11,16.65,7.87,25.01l23.23,70.37c1.05,3.18,2.15,9.05,0,11.28-5.09,5.3-11.32,6.48-18.34,9.28l1.6,9.26,32.65.23ZM347.71,115.44l-3.82-5.4c-2.62,2.39-5.16,6.54-1.84,10.22l5.66-4.82ZM366.28,182.08c11.85,2.19,22.65-.85,31.24-8.67,6.83-6.22,11.43-16.05,10.78-26.6-.81-13.16-8.12-24.34-19.12-29.86-11.63-5.83-24.9-4.97-36,2.14-3.43,2.2-7.6,5.54-8.21,9.59l21.31,53.4ZM89.06,227.71l-11.24-35.67-5.53-16.24,1.33,58.93c6.08-1.68,10.4-3.46,15.44-7.02ZM428.32,255.05c-20.34-6.44-28.4-.92-29.78-7.3-4.81-22.3-8.44-39.88-19.41-59.37l-9.99.07c3.76,9.19,7.06,18.61,9.75,28.51,2.93,10.79,10.45,33.81,16.21,42.58l18.1,1.83c9.42.95,18.77,0,29.02-.48-3.62-3.94-8.68-4.18-13.88-5.83Z"/>
  <path class="cls-1" d="M430.74,276.98l-48.8.06c-4.84,0-5.45-2.57-6.71-6.44l-24.12-74.07c-7.31-22.45-19.47-42.26-30.74-62.96l-13.93-25.6c-.27-.5-1.91-2.47-2.16-2.04l-1.7,3c-25.6-38.1-70.22-67.05-116.53-45.35,4.57-15.59.11-32.21-13.66-39.99-3.99-2.26-8.61-3.57-13.41-5.53l17.62-5.44c35.24-10.89,66.64-8.83,100.72,4.74,19.06,7.59,35.09,19.56,47.1,36.14,9.91,13.69,22.47,40.61,13.25,55.74l-8.3-18.39c-.38-.83-2.38-1.9-3.1-2.13-.9-.29-2.53,2.21-2.1,3.16,3.63,8.07,7.29,17,10.61,25.42l33.57,85.04c7.75,19.65,10.62,39.89,14.99,60.44,1.74,8.16,9.49-1.63,33.96,7.89,4.51,1.76,9.17,1.65,13.43,6.29Z"/>
  <path class="cls-1" d="M68.72,242.17c1.01,12.76,9.82,28.57-1.5,29.3-3.79.24-65.73,4.04-61.26-1,.57-.64,2.47-2.19,3.29-2.41,14.31-3.74,28.69-7.63,41.4-15.44,5.02-3.08,3.94-10.16,2.86-15.05l-12.69-57.54c-4.29-19.44-7.85-38.32-10.89-57.97-1.33-8.63,1.16-15.94,7.15-22.33,29.06-31,63.7-56.01,101.96-74.57,10.36-5.02,22.47-3.74,31.18,2.65,12.89,9.45,17.6,28.31,6.4,40.86-7.52,8.42-19.84,9.99-30.64,8.89-4.95-.5-8.9.04-13.04,2.6-16.43,10.17-32.96,18.97-50.24,27.62l-23.21,11.63c-3.11,1.56-4.64,4.49-3.17,8.02,7.86,18.89,10.47,38.04,10.54,58.51.07,19.06.38,37.37,1.87,56.2Z"/>
  <path class="cls-1" d="M366.28,182.08l-21.31-53.4c.61-4.05,4.79-7.39,8.21-9.59,11.1-7.11,24.37-7.97,36-2.14,11,5.52,18.31,16.7,19.12,29.86.65,10.54-3.96,20.38-10.78,26.6-8.59,7.82-19.38,10.86-31.24,8.67Z"/>
  <path class="cls-1" d="M108.54,250.17l-32.65-.23-1.6-9.26c7.02-2.79,13.25-3.98,18.34-9.28,2.15-2.24,1.05-8.11,0-11.28l-23.23-70.37c-2.76-8.36-4.51-16.42-7.87-25.01l31.5-16.01c-2.24,2.51-4.58,3.99-7.58,6.02-1.39.84-2.57,3.66-1.6,5.24,7.82,12.81,12.99,26.25,14.74,41.25l5.11,43.86c1.48,12.74,4.55,24.18,9.19,36.12.55,1.42.71,4.27.41,5.52s-3.35,3.45-4.75,3.44Z"/>
  <path class="cls-1" d="M428.32,255.05c5.2,1.65,10.26,1.9,13.88,5.83-10.25.47-19.6,1.43-29.02.48l-18.1-1.83c-5.76-8.78-13.28-31.79-16.21-42.58-2.69-9.9-5.99-19.31-9.75-28.51l9.99-.07c10.98,19.49,14.61,37.07,19.41,59.37,1.38,6.38,9.44.86,29.78,7.3Z"/>
  <path class="cls-1" d="M89.06,227.71c-5.04,3.56-9.36,5.34-15.44,7.02l-1.33-58.93,5.53,16.24,11.24,35.67Z"/>
  <path class="cls-1" d="M347.71,115.44l-5.66,4.82c-3.32-3.68-.78-7.83,1.84-10.22l3.82,5.4Z"/>
</svg>