<?xml version="1.0" encoding="UTF-8"?>
<svg id="Layer_1" data-name="Layer 1" xmlns="http://www.w3.org/2000/svg" viewBox="0 0 347.88 203.38">
  <defs>
    <style>
      .cls-1 {
        fill: #fff;
      }
    </style>
  </defs>
  <path fill="currentColor" d="M232.05,43.58c-16.4,6.35-32.36,11.42-49.66,15.28-1.02,14.47-2.09,28.77-4.37,43.13-2.08,13.14-1.55,25.18-1.18,38.5.45,16.23-6.65,33.09-3.5,53.08.79,5.02-2.19,9.81-7.9,9.8l-36.52-.07c-2.6,0-5.38-3.39-5.14-5.23.36-2.76,3.02-4.02,5.83-4.57,8.71-1.71,16.2-5.75,24.2-9.99.68-14.18,1.05-45.29-.63-57.91l-2-15.05c-2.01-15.14-3.22-29.34-4.1-44.76-6.81.5-13.36,1.59-19.78,2.44l-31.31,4.17c-11.43,1.52-20.28,1.88-29.76-6.05-7.66-6.41-16.17-12.68-24.71-18.89-8.88,5.69-18.4,6.14-27.52,1.35C6.25,44.73.1,36.45,0,26.58-.16,10.63,12.95-1.01,28.1.07c15.75,1.12,26.85,14.92,24.21,31.66,8.7-2.67,16.63-4.4,25.22-3.69l24.15,1.99c13.12,1.08,27.62.69,40.49-2.4,10.26-2.46,18.49-8.06,29.85-3.15,2,.86,79.91-8.78,74.51-7.36l29.06-7.63c13.97-3.67,28.87-2.08,43.35-4.61,3.86-.67,13.36-7.6,19.95-3.7,1.63.96,2.97,4,3.49,6.39l4.3,19.7c.97,4.46,3.36,15.92-3.7,16.52-5.35.45-5.5-7.8-6.57-9.83-2.56-4.83-8.36-11.11-14.02-12.26-9.88.79-19.06,4.32-28.53,7.09-14.61,4.28-28.8,8.68-43.85,10.81-6.19.88-11.72,1.55-17.97,3.97ZM232.01,39.26c11.59-4.28,24.76-4.16,36.67-7.61l45.82-13.27c10.9-3.16,14.53.67,23.3,9.84,2.61,2.72,3.39,6.65,4.96,10.94,2.08-4.65.22-9.18-1-13.82-1.49-5.7-2.49-10.78-3.42-16.85-.2-1.29-1.84-3.89-3.09-4.24,6.47,1.82-68.78,11.82-60.32,9.54l-26.71,7.17c3.42-.92-73.34,8.9-79.2,7.13-8.3-2.5-16.21-1.68-23.2,3.58.52,6.62,1.61,12.93,3.01,19.42,9.31-.54,22.23-2.77,28.29,4.85,18.75-4.37,36.49-9.89,54.88-16.68ZM16.22,45.2c9.47,5.02,19.8,2.7,26.73-4.73,6.43-6.89,7.32-17.64,2.13-25.99S30.55,2.97,20.83,5.05C11.66,7.02,5.46,14.63,4.51,23.13c-1.02,9.18,3.15,17.53,11.71,22.07ZM168.47,61.39l-6.67-3.07,10.39-2.11c-7.81-2.96-14.89-1.2-22.74-1.63-28.29-1.57-55.99-6.33-82.82-15.15,2.71-3.5,6.03-1.91,8.88-1.07,22.03,6.43,45.78,9.94,69.06,12.4l-2.58-18.2c-23.8,1.34-33.8,3.57-58.69.25-7.31-.97-15.45-.92-22.08,1.11l-5.74,5.9c-3.2,3.29-2.81,14.11,3.59,14.8,15.3,1.65,30.87,1.14,46.41,3.49l20.21,3.05c-21.5,2.3-38.13-2.72-61.4-1.8l7.72,5.62c4.32,3.14,10.37,6.19,15.81,4.51,5.71-1.77,10.76-2.22,16.79-2.4,26.96-.77,25.61-9.42,51.83-5.85,4.36.59,8.49.54,12.03.16ZM44.55,44.97l4.62,3.52,3.73-12.53c-.47.05-2.55.95-3.02,1.61l-5.33,7.4ZM165.03,199.19c3.27.03,4.93-3.1,4.33-5.67-4.13-17.57,4.72-41.55,3.93-53.08l-1.29-18.85,4.81-43.19c.68-6.07.84-11.72.69-17.86-8.64,5.27-15.68,6.26-25.97,3.92.43,14.87,2,29.13,3.71,43.95l1.97,17.04c2.15,18.6,1.21,36.99,1.07,55.6-.07,10.1-21.77,13.67-29.84,17.8l36.59.34Z"/>
  <path class="cls-1" d="M232.01,39.26c-18.39,6.79-36.13,12.3-54.88,16.68-6.06-7.62-18.97-5.39-28.29-4.85-1.4-6.48-2.48-12.8-3.01-19.42,6.99-5.26,14.9-6.08,23.2-3.58,5.86,1.76,82.62-8.05,79.2-7.13l26.71-7.17c-8.47,2.27,66.79-7.72,60.32-9.54,1.24.35,2.89,2.96,3.09,4.24.93,6.07,1.93,11.15,3.42,16.85,1.21,4.64,3.08,9.17,1,13.82-1.57-4.29-2.35-8.21-4.96-10.94-8.78-9.16-12.4-13-23.3-9.84l-45.82,13.27c-11.91,3.45-25.09,3.33-36.67,7.61Z"/>
  <path class="cls-1" d="M168.47,61.39c-3.53.38-7.67.44-12.03-.16-26.22-3.57-24.87,5.08-51.83,5.85-6.03.17-11.08.63-16.79,2.4s-11.49-1.37-15.81-4.51l-7.72-5.62c23.27-.93,39.89,4.09,61.4,1.8l-20.21-3.05c-15.54-2.35-31.11-1.83-46.41-3.49-6.4-.69-6.79-11.51-3.59-14.8l5.74-5.9c6.63-2.04,14.77-2.08,22.08-1.11,24.89,3.31,34.89,1.08,58.69-.25l2.58,18.2c-23.29-2.46-47.03-5.97-69.06-12.4-2.85-.83-6.16-2.42-8.88,1.07,26.83,8.82,54.53,13.57,82.82,15.15,7.85.44,14.92-1.33,22.74,1.63l-10.39,2.11,6.67,3.07Z"/>
  <path class="cls-1" d="M165.03,199.19l-36.59-.34c8.07-4.12,29.77-7.7,29.84-17.8.14-18.61,1.07-37-1.07-55.6l-1.97-17.04c-1.71-14.82-3.27-29.08-3.71-43.95,10.28,2.34,17.33,1.35,25.97-3.92.15,6.15-.01,11.8-.69,17.86l-4.81,43.19,1.29,18.85c.79,11.53-8.06,35.51-3.93,53.08.6,2.57-1.06,5.7-4.33,5.67Z"/>
  <path class="cls-1" d="M16.22,45.2c-8.56-4.54-12.73-12.89-11.71-22.07.95-8.49,7.15-16.11,16.32-18.07,9.72-2.08,19.27,1.45,24.24,9.43s4.3,19.1-2.13,25.99c-6.93,7.43-17.26,9.75-26.73,4.73Z"/>
  <path class="cls-1" d="M44.55,44.97l5.33-7.4c.47-.66,2.56-1.56,3.02-1.61l-3.73,12.53-4.62-3.52Z"/>
</svg>