<?xml version="1.0" encoding="UTF-8"?>
<svg id="Layer_1" data-name="Layer 1" xmlns="http://www.w3.org/2000/svg" viewBox="0 0 241.53 289.25">
  <defs>
    <style>
      .cls-1 {
        fill: #fff;
      }
    </style>
  </defs>
  <path fill="currentColor" d="M27.92,272.76c7.51,6.98,22.7,6.05,22.42,12.43-.06,1.46-2.74,3.92-4.43,3.92l-38.24.05c-1.63,0-4.9-1.77-6.06-2.85-1.31-1.21-1.98-5.1-1.4-7.11,1.88-6.53,6.44-10.62,11.62-14.38,24.38-17.68,30.46-29.44,61.79-40.31,6.81-4.5,13.28-11.01,19.6-16.38l23.73-20.19c2.21-26.82,21.34-17.29,25.06-33.53,1.29-5.63-1.52-10.29-5.57-14.23l-10.83-10.51-3.55,12.67c-.2.7-6.83,11.5-11.96,8.49-3.17-1.87.39-1.73-1.22-10.56l-1.23-6.71c-.21-1.16.4-4.18-.26-5.15l-2.93-4.29c-.79-1.16,1.87-4.43,1.92-5.91.09-3.18-.2-7.81,2.06-11.27-12.1-.43-23.23-7.8-25.74-20.1-2.29-11.19,3.44-21.9,12.52-27.24,9.77-5.74,21.66-4.72,30.71,3.24,2.16-10.74,5-20.76,8.69-31.19,1.34-3.79,1.4-7.91.08-11.1-3.06-7.36,2.03-10.43,5.94-13.76,5.16-4.41,7.95-7.82,15.47-6.5,3.33.58,6.91-1.46,8.93,3.43,3.26,7.92.38,14.65-1.94,22.31-2.72,9-2.32,19.29-3.88,28.85-.78,4.81-2.33,9.17-3.4,13.79l-7.37,31.69c16.38,8.32,24.83,4.48,26.48,25.27,9.38,15.35,2.31,33.36-2.22,51.02,18.37,2.26,35.53,7.81,52.45,15.61,6.59,3.04,11.43,8.9,8.65,16.69l-7.85,21.98c-4.67,13.06-9.41,25.14-13.47,38.96,9.07,4.91,17.26,8.61,26.76,11.68,1.34.43,2.59,3.17,2.22,4.41s-3.04,3.27-4.42,3.26l-39.29-.17c-2.13,0-5.79-2.45-6.69-4.13-3.14-5.8,3.47-13.54,3.85-16l5.72-36.48c1.05-6.73,4.07-13.17,6.84-19.86-18.04-.79-35.32-3.01-53.01-6.45-3.32-.65-6.7-.23-9.26,1.9-15.85,13.18-32.92,23.26-51.48,31.8l-13.74,6.32c-17.65,8.12-34.22,17.02-52.06,26.58ZM204.48,234.13c-1.61,12.75-3.03,24.76-6,37.33-.54,2.29-6,8.85-3.01,12.09.57.62,2.46,1.36,3.3,1.36l37.26-.02c-5.79-3.35-30.51-8.54-27.28-17.88l10.59-30.67,10.46-28.69c1.44-3.95-.66-8.76-4.24-10.47-14.99-7.18-41.62-17.21-57.72-15.95-5.19-5.67-7.26-1.31-9.32-5.9-1.29-2.88,8.19,1.15,9.44.57,5.55-15.81,11.1-34.58,2.56-49.34l-4.74,1.11c.82-.63,2.79-2.01,3.46-2.67,2.81-6.95-2.85-13.33-9.9-15.91l-19.99-7.32c.08,1.29.38,3.31.67,4.9l.58,3.1c.1.55-2.54,1.23-2.89.8-1.37-1.68-3-5.98-2.75-8.56,1.17-11.89,2.34-22.92,4.77-34.33,3.47-16.3,3.48-25.67,7.12-40.64,6.54-6.3,9.43-14.27,7.01-23.12-10.69.57-8.09,9.79-15.84,11.83l2.66,9.85-8.75,30.25-9.61,48.09c-3.49,17.45,6.96,23.4,18.55,34.73,7.4,7.23,7.84,17.33.83,25.64l12.7,6.92c.83.45,1.65,2.12,1.54,2.93-.08.61-2.48.92-3.09.54l-11.64-7.29c-11.67.37-20.55,10.24-20.37,22.21l-28.91,25.31c-5.8,5.08-11.47,10.79-18.49,14.1-9.85,4.64-20.17,7.77-28.69,14.62l-33.4,26.85c-2.63,2.11-8.98,9.42-6.52,12.65.43.57,2.29,1.58,3.19,1.58l36.96.09c-8.53-3.62-16.53-4.81-22.9-11.94,4.04-3.61,7.96-6.43,12.44-8.65,15.12-7.48,29.45-15.82,44.99-22.34,4.72-1.98,8.47-3.87,12.86-6.18,11.93-6.26,23.53-11.82,34.75-19.51,9.35-6.42,18.48-13.42,26.82-21.25.62-.59,2.22,2.23,1.67,2.86l-3.34,3.77c11.04,1.86,21.23,4.09,32.61,5l25.86,2.08c7.73.62-4.29,9.86-6.26,25.48ZM144.4,98.72l7.48-30.94c1.11-4.6,2.55-9.02,3.24-13.85,1.37-9.55,1.02-19.49,3.6-28.78,2.04-7.33,7.55-14.38.58-22.24l-1.17,11.1c-.38,3.6-2.29,6.86-3.59,10.3-5.21,13.81-7.41,28.2-10.68,42.48-2.4,10.47-3.75,20.14-4.67,30.73l5.21,1.19ZM125.53,68.81c-6.32-8.33-15.56-10.13-24.45-7.25-8.22,2.66-14.39,10.65-14.46,20.24-.05,7.94,4.6,14.78,10.93,18.04,6.1,3.14,15.32,4.54,20.95-.68,3.39-9.32,5.16-20.15,7.03-30.35ZM112.74,146.01c4.93-2.67,6.24-7.45,7.8-12.47,4.06-13.07-6.44-10.59-3.02-28.76-3.27.11-5.77,2.33-6.38,5.16-.47,2.18.04,6.18-.06,8.38-.06,1.27-2.81,3.88-2.23,4.89l2.32,4.07,2.31,13.77c.19,1.12-.4,3.32-.74,4.96Z"/>
  <path class="cls-1" d="M204.48,234.13c1.97-15.62,14-24.86,6.26-25.48l-25.86-2.08c-11.38-.92-21.57-3.14-32.61-5l3.34-3.77c.56-.63-1.04-3.44-1.67-2.86-8.35,7.83-17.47,14.83-26.82,21.25-11.22,7.7-22.82,13.25-34.75,19.51-4.4,2.31-8.15,4.2-12.86,6.18-15.54,6.53-29.87,14.86-44.99,22.34-4.48,2.22-8.4,5.04-12.44,8.65,6.37,7.13,14.37,8.32,22.9,11.94l-36.96-.09c-.91,0-2.76-1.01-3.19-1.58-2.46-3.24,3.89-10.54,6.52-12.65l33.4-26.85c8.52-6.85,18.84-9.98,28.69-14.62,7.02-3.31,12.69-9.02,18.49-14.1l28.91-25.31c-.18-11.96,8.7-21.83,20.37-22.21l11.64,7.29c.61.38,3.01.07,3.09-.54.1-.81-.71-2.48-1.54-2.93l-12.7-6.92c7.01-8.31,6.57-18.4-.83-25.64-11.59-11.33-22.04-17.29-18.55-34.73l9.61-48.09,8.75-30.25-2.66-9.85c7.75-2.04,5.15-11.26,15.84-11.83,2.42,8.85-.47,16.82-7.01,23.12-3.64,14.97-3.65,24.34-7.12,40.64-2.43,11.4-3.6,22.43-4.77,34.33-.25,2.58,1.38,6.88,2.75,8.56.35.43,3-.25,2.89-.8l-.58-3.1c-.3-1.59-.59-3.62-.67-4.9l19.99,7.32c7.05,2.58,12.71,8.96,9.9,15.91-.66.67-2.64,2.04-3.46,2.67l4.74-1.11c8.54,14.76,3,33.53-2.56,49.34-1.25.59-10.73-3.44-9.44-.57,2.06,4.59,4.12.23,9.32,5.9,16.1-1.26,42.73,8.77,57.72,15.95,3.58,1.71,5.68,6.53,4.24,10.47l-10.46,28.69-10.59,30.67c-3.23,9.34,21.5,14.53,27.28,17.88l-37.26.02c-.84,0-2.73-.74-3.3-1.36-2.99-3.24,2.47-9.8,3.01-12.09,2.97-12.56,4.39-24.58,6-37.33Z"/>
  <path class="cls-1" d="M125.53,68.81c-1.87,10.21-3.64,21.03-7.03,30.35-5.63,5.22-14.85,3.82-20.95.68-6.33-3.26-10.98-10.1-10.93-18.04.07-9.59,6.24-17.58,14.46-20.24,8.89-2.88,18.13-1.08,24.45,7.25Z"/>
  <path class="cls-1" d="M144.4,98.72l-5.21-1.19c.93-10.59,2.28-20.27,4.67-30.73,3.27-14.28,5.47-28.67,10.68-42.48,1.3-3.44,3.21-6.69,3.59-10.3l1.17-11.1c6.97,7.86,1.45,14.91-.58,22.24-2.58,9.28-2.23,19.23-3.6,28.78-.69,4.82-2.13,9.25-3.24,13.85l-7.48,30.94Z"/>
  <path class="cls-1" d="M112.74,146.01c.34-1.64.93-3.84.74-4.96l-2.31-13.77-2.32-4.07c-.57-1.01,2.18-3.62,2.23-4.89.1-2.2-.41-6.21.06-8.38.61-2.84,3.1-5.05,6.38-5.16-3.42,18.18,7.09,15.69,3.02,28.76-1.56,5.02-2.87,9.81-7.8,12.47Z"/>
</svg>