<?xml version="1.0" encoding="UTF-8"?>
<svg id="Layer_1" data-name="Layer 1" xmlns="http://www.w3.org/2000/svg" viewBox="0 0 326.96 243.8">
  <defs>
    <style>
      .cls-1 {
        fill: #fff;
      }
    </style>
  </defs>
  <path fill="currentColor" d="M150.82,162.11l-48.6,28.62-15.29,7.83-47.93,29.57c8.19,6.24,22.66,5.01,22.15,11.73-.12,1.59-3.18,3.94-5.12,3.94l-37.25-.02c-1.79,0-4.93-1.88-5.94-3.17s-1.22-5.18-.71-6.76c2.34-7.21,7.57-10.97,13-15.42,22.08-18.06,22.72-26.03,50.86-39.02,2.87-1.33,5.7-3.7,7.95-6.04,12.11-12.56,24.97-23.48,38.88-34.07,1.4-3.28,2.91-7.27,4.88-10,18.29-25.28,9.04-24.15,7.82-51.26-4.05-.7-8.97-1.13-13.63-1.57l-33.03-3.13-13.99.15-36.09-4.19-18.51,1.79c-3.41.33-4.69-3.53-7.57-4.62l-10.92-4.16C.91,61.96-.03,59.66,0,58.72c.04-1.12,2.45-2.75,3.77-2.75l45.14-.04c13.23-.01,25.67-1.45,38.86-.62,9.54.59,19.45.56,29.08-.35,11.34-1.07,21.65-2.99,33.17-1.42,2.46.33,5.63-2.34,5.38-4.59-9.55-5.36-16.19-15.04-14.78-25.95,1.32-10.15,8.42-19.12,19.05-22.03,13.45-3.68,27.12,3.42,31.65,16.31,4.54,12.92-2.32,26.84-15.28,32.37-.99,1.3,1.74,4.39,3.44,4.2,8.13-.89,15.55-.79,23.66.17,12.36,1.46,30.51,2.43,42.8,1.44,13.85-1.12,26.98.65,41.06.66l37.44.02c1.28,0,2.98,2.84,2.43,3.57s-1.99,2.15-2.86,2.48c-5.7,2.17-10.81,4.46-15.69,7.03-6.57,3.47-13.36.09-19.8.02-9.85-.11-19.62,3.06-29.63,3.51l-17.05.76-49.25,4.38c-1,21.31-12.21,29.99-5.62,53.24,22.45,1.9,43.94,5.68,65.26,11.94,6.65,1.95,10.03,7.5,10.05,14.32l.19,61.02c0,1.46,1.08,5.48,2.65,6.28,7.25,3.69,16.63,7.51,24.76,10.59,1.62.61,3.18,3.2,3.08,4.57-.12,1.65-2.9,3.87-4.98,3.86h-37.06c-4.72,0-7.93-3.98-7.28-8.42.44-3.06,1.83-7.02,1.76-9.86-.52-20.62-9.73-36.24-6.69-61.04-4.63-.34-9.25-.35-13.82.13-20.27,2.1-39.34,1.06-59.23-2.74-4.09-.78-10.29-.08-14.82.34ZM167.02,46.93c12.71-.39,21.75-10.4,21.35-21.96-.41-11.78-10.23-21.23-22.48-20.71-12.5.53-21.6,10.37-21.02,22.57.51,10.88,9.99,20.47,22.16,20.1ZM169.07,157.89c16.96,3.28,33.6,3.93,50.78,2.75,4.77-.33,19.95-1.79,22.17,1.18.6.8.98,3.27.88,4.4-.9,10.55.08,20.01,2.04,30.13l4.57,23.63c1.51,7.83-4.57,19.26.23,19.28l38.55.16c-9.2-4.01-18.09-7.29-26.61-12.06-2.11-1.18-3.39-6.92-3.41-9.4l-.5-62.41c-.04-5.45-3.54-7.6-8.09-8.91-22.09-6.36-43.79-9.71-67.55-12.35-14.18,5.84-31.53,6.2-45.34-2.73-.6-.39-2.08-2.32-1.46-2.43.47-.09,2.43-.49,3.04-.22,16.85,7.6,24.23,7.25,43.88,2.35-2.24-10.75-2.03-20.31,1.11-30.49.23-.75.65-3.15,0-3.56l-2.37-1.45c3.34-.97,6.4-4.26,6.51-8.68l.38-16.44c.02-.81,2.16-2.91,2.72-2.38,2.77,2.62,0,6.19,1.09,5.87.46-.13,2.25-.67,2.76-.72l45.37-4.13,17.51-.43c10.27-.25,20.23-3.21,30.65-3.65,6.14-.26,12.26,2.72,18.01.69l-6.6-1.43c3.42-4.74,11.12.08,16.67-3.88l-38.14-.37c-12.38-.12-23.99-1.28-36.29-.52-27.29,1.69-42.1-4.03-62.4-1.78-4.25.47-7.98-3.43-7.76-7.06l-11.91-.53c-1.04,3.49-4.12,7.66-8.72,7.15-10.94-1.21-21.11.31-32.1,1.41-24.26,2.42-38.81-.89-62.78.91-8.79.66-17.21.31-26.08.36l-19.82.12c-.49,0-1.97-.96-2.22-.56l-.87,1.38,9.91,1.05c3.16.34,6.48-1.21,8.57,2.03l-7.71,1.81c7.36,1.53,14.12-.54,21.15-.48,10.24.09,20.23,3.14,30.36,3.35l18.68.38,48.63,4.37c0-3.03.19-5.92,3.55-5.4l.15,18.06c.03,3.18,2.24,7.02,3.8,9.26-3.3,19.29,1.74,10.25-7.65,29.28-4.87,9.88-5.29,2.86-10.43,17.6-13.18,9.95-25.51,20-37.07,31.89-12.11,12.46-22.73,11.29-39.58,27.61-8.64,8.37-17.01,16.01-26.45,23.7-2.96,2.41-9.23,10.24-6.49,12.73.61.55,2.42,1.26,3.44,1.25l36.38-.18c-7.61-3.19-15.05-3.5-21.38-9.28-1.54-1.41.75-5.07,2.7-6.26l48.78-29.8,10.17-5.16,53.71-31.34,13.97-.31,5.62-4.56-.72,5.22Z"/>
  <path class="cls-1" d="M169.07,157.89l.72-5.22-5.62,4.56-13.97.31-53.71,31.34-10.17,5.16-48.78,29.8c-1.95,1.19-4.24,4.86-2.7,6.26,6.33,5.78,13.77,6.09,21.38,9.28l-36.38.18c-1.02,0-2.83-.7-3.44-1.25-2.74-2.49,3.53-10.32,6.49-12.73,9.45-7.7,17.81-15.34,26.45-23.7,16.85-16.32,27.46-15.15,39.58-27.61,11.55-11.89,23.89-21.93,37.07-31.89,5.13-14.74,5.55-7.72,10.43-17.6,9.39-19.03,4.36-10,7.65-29.28-1.56-2.24-3.78-6.08-3.8-9.26l-.15-18.06c-3.36-.52-3.56,2.37-3.55,5.4l-48.63-4.37-18.68-.38c-10.13-.21-20.12-3.26-30.36-3.35-7.02-.06-13.79,2.01-21.15.48l7.71-1.81c-2.09-3.24-5.4-1.69-8.57-2.03l-9.91-1.05.87-1.38c.26-.41,1.73.56,2.22.56l19.82-.12c8.87-.05,17.29.29,26.08-.36,23.97-1.79,38.52,1.52,62.78-.91,10.99-1.1,21.15-2.63,32.1-1.41,4.6.51,7.68-3.66,8.72-7.15l11.91.53c-.22,3.63,3.51,7.53,7.76,7.06,20.3-2.25,35.11,3.47,62.4,1.78,12.29-.76,23.91.4,36.29.52l38.14.37c-5.55,3.95-13.25-.86-16.67,3.88l6.6,1.43c-5.75,2.04-11.87-.94-18.01-.69-10.42.44-20.38,3.4-30.65,3.65l-17.51.43-45.37,4.13c-.5.05-2.3.58-2.76.72-1.08.32,1.68-3.25-1.09-5.87-.56-.53-2.7,1.57-2.72,2.38l-.38,16.44c-.1,4.41-3.16,7.71-6.51,8.68l2.37,1.45c.66.41.24,2.81,0,3.56-3.14,10.18-3.34,19.75-1.11,30.49-19.65,4.9-27.03,5.24-43.88-2.35-.61-.27-2.58.13-3.04.22-.62.11.86,2.04,1.46,2.43,13.81,8.93,31.16,8.57,45.34,2.73,23.76,2.64,45.45,5.98,67.55,12.35,4.55,1.31,8.04,3.46,8.09,8.91l.5,62.41c.02,2.48,1.3,8.22,3.41,9.4,8.52,4.77,17.41,8.05,26.61,12.06l-38.55-.16c-4.8-.02,1.29-11.45-.23-19.28l-4.57-23.63c-1.96-10.13-2.94-19.59-2.04-30.13.1-1.13-.28-3.6-.88-4.4-2.21-2.98-17.39-1.51-22.17-1.18-17.18,1.17-33.82.53-50.78-2.75Z"/>
  <path class="cls-1" d="M167.02,46.93c-12.17.37-21.65-9.22-22.16-20.1-.57-12.2,8.52-22.03,21.02-22.57,12.25-.52,22.07,8.93,22.48,20.71.41,11.56-8.63,21.57-21.35,21.96Z"/>
</svg>